<svg width="148" height="126" viewBox="0 0 148 126" fill="none" xmlns="http://www.w3.org/2000/svg">
<path d="M2 30.5V123.5H146.5V30L115 1.5H33L2 30.5Z" stroke="black"/>
<path d="M111.92 43.8185H119.877V50.0638H111.92V43.8185ZM110.587 52.7305H121.211C121.563 52.7305 121.905 52.5891 122.153 52.3411C122.401 52.0905 122.544 51.7491 122.544 51.3971V42.4878C122.544 42.1372 122.401 41.7931 122.153 41.5438C121.905 41.2958 121.563 41.1545 121.211 41.1545H110.587C110.235 41.1545 109.891 41.2958 109.643 41.5438C109.393 41.7905 109.252 42.1372 109.252 42.4878V51.3971C109.252 51.7491 109.393 52.0905 109.643 52.3411C109.891 52.5891 110.235 52.7305 110.587 52.7305Z" fill="#173F5F"/>
<path d="M57.1571 19.4297H50.4744L54.3131 15.9057H61.0011L57.1571 19.4297ZM64.4304 13.239H53.7944C53.4584 13.239 53.1397 13.363 52.8917 13.5896L46.1437 19.783C45.7371 20.1563 45.6037 20.7337 45.8064 21.2484C46.0037 21.7617 46.4944 22.0977 47.0464 22.0977H57.6771C58.0104 22.0977 58.3291 21.9724 58.5771 21.7484L65.3304 15.555C65.7357 15.1843 65.8731 14.6043 65.6717 14.0896C65.4744 13.575 64.9784 13.239 64.4304 13.239Z" fill="#173F5F"/>
<path d="M61.1992 43.8185H69.1525V50.0625H61.1992V43.8185ZM59.8659 52.7305H70.4872C70.8432 52.7305 71.1792 52.5932 71.4299 52.3398C71.6832 52.0878 71.8192 51.7532 71.8192 51.3985V42.4865C71.8192 42.1371 71.6765 41.7931 71.4299 41.5438C71.1819 41.2945 70.8379 41.1545 70.4872 41.1545H59.8659C59.5139 41.1545 59.1726 41.2945 58.9232 41.5438C58.6739 41.7931 58.5312 42.1371 58.5312 42.4865V51.3985C58.5312 51.7478 58.6739 52.0945 58.9232 52.3398C59.1726 52.5892 59.5139 52.7305 59.8659 52.7305Z" fill="#173F5F"/>
<path d="M2.90836 32.3072H82.3083V122.377H71.7417V98.3245C71.7377 96.9805 71.3404 95.7299 70.6777 94.6672C69.479 92.7432 67.3804 91.4485 64.9484 91.4472V91.4459C61.1804 91.4512 58.1751 94.5499 58.1697 98.3245L58.1671 122.377H51.1644V98.3258C51.1631 97.8538 51.115 97.3926 51.0244 96.9459C50.3924 93.8219 47.6777 91.4499 44.3737 91.4472C40.5951 91.4499 37.5897 94.5485 37.5817 98.3245V122.377H30.5817V98.3245C30.5817 94.5432 27.5497 91.4525 23.7804 91.4472C23.0617 91.4485 22.3844 91.5912 21.7364 91.8005C20.0151 92.3552 18.6084 93.5698 17.7871 95.1618C17.2951 96.1138 16.9897 97.1792 16.9871 98.3245V106.786L16.9844 122.377H2.90836V32.3072ZM33.3617 2.66588H111.682L83.0017 29.6392H4.69371L33.3617 2.66588ZM115.056 3.14986L145.202 30.7126V122.374H122.692V98.3258C122.691 97.5858 122.543 96.8846 122.328 96.2152C121.444 93.4659 118.928 91.4512 115.896 91.4472C113.542 91.4512 111.48 92.6605 110.264 94.4898C110.234 94.5378 110.214 94.5939 110.184 94.6419C109.512 95.7099 109.11 96.9699 109.108 98.3245L109.104 122.374H84.9764V31.4459L115.056 3.14986ZM120.026 110.35L120.024 122.375H111.775V98.3258C111.775 95.9898 113.639 94.1179 115.898 94.1152C116.062 94.1152 116.216 94.1458 116.375 94.1645C118.007 94.3632 119.348 95.5245 119.824 97.0939C119.943 97.4859 120.026 97.8938 120.026 98.3258V110.35ZM69.0711 122.374H60.8364V98.3245C60.8364 96.6885 61.7564 95.2979 63.0764 94.5992C63.6417 94.3006 64.2724 94.1166 64.9484 94.1152V94.1139C67.2191 94.1192 69.0697 95.9845 69.0737 98.3245L69.0711 122.374ZM48.4964 122.375H40.2497V114.359L40.2524 98.3258C40.2524 97.0418 40.819 95.9152 41.6964 95.1459C42.419 94.5126 43.347 94.1165 44.3724 94.1139C44.5937 94.1139 44.807 94.1459 45.019 94.1805C45.079 94.1912 45.143 94.1872 45.2017 94.2005C45.2724 94.2152 45.3364 94.2458 45.4057 94.2645C47.0724 94.7072 48.319 96.1752 48.463 97.9912C48.4724 98.1032 48.4964 98.2112 48.4964 98.3258V122.375ZM27.9137 122.375H19.655V98.3245C19.655 97.1565 20.1217 96.1059 20.8697 95.3459C21.6191 94.5859 22.6511 94.1165 23.7817 94.1139C23.9697 94.1139 24.1497 94.1459 24.3311 94.1712C24.4217 94.1846 24.5191 94.1819 24.6071 94.2005C24.6951 94.2192 24.7737 94.2565 24.8604 94.2805C26.603 94.7685 27.9097 96.3779 27.9137 98.3245V122.375ZM0.24169 31.7179V123.709C0.24169 124.061 0.384414 124.405 0.633747 124.65C0.87908 124.899 1.22306 125.043 1.57639 125.043H18.3151C18.3177 125.043 18.319 125.045 18.3217 125.045H29.2484C29.2511 125.045 29.2524 125.043 29.255 125.043H38.9177C38.9191 125.043 38.9204 125.042 38.9204 125.042H49.8284C49.8284 125.042 49.8297 125.043 49.8311 125.043H59.5004C59.5004 125.043 59.5017 125.043 59.5031 125.043H70.4071C70.4084 125.043 70.4097 125.043 70.4097 125.043H83.6431C83.6444 125.043 83.6457 125.042 83.6484 125.042H109.931C110.091 125.109 110.264 125.145 110.44 125.145H121.359C121.536 125.145 121.71 125.109 121.87 125.042H146.539C146.888 125.042 147.234 124.901 147.48 124.653C147.73 124.402 147.872 124.059 147.872 123.707V30.1285C147.872 29.7512 147.714 29.3966 147.438 29.1432L115.943 0.347191C115.924 0.331192 115.903 0.327194 115.884 0.311188C115.794 0.236526 115.696 0.179214 115.592 0.132545C115.555 0.115211 115.52 0.0925598 115.48 0.0792236C115.342 0.0312271 115.198 0.000511169 115.044 0.000511169H32.8324C32.4897 0.000511169 32.1657 0.125839 31.919 0.361839L0.421703 30.0032C0.0217027 30.3765 -0.107625 30.9566 0.0937079 31.4659C0.131041 31.5579 0.187023 31.6379 0.24169 31.7179Z" fill="#173F5F"/>
<path d="M36.5026 19.4297H29.8172L33.6639 15.9057H40.3492L36.5026 19.4297ZM43.7786 13.239H33.1506C32.8132 13.239 32.4959 13.363 32.2492 13.5896L25.4892 19.7803C25.0826 20.1537 24.9492 20.7337 25.1465 21.2484C25.3492 21.7617 25.8399 22.0977 26.3919 22.0977H37.0226C37.3559 22.0977 37.6745 21.9724 37.9212 21.7484L44.6786 15.555C45.0839 15.1843 45.2186 14.6043 45.0199 14.0896C44.8212 13.575 44.3279 13.239 43.7786 13.239Z" fill="#173F5F"/>
<path d="M111.917 65.7794H119.875L119.877 72.0234H111.917V65.7794ZM110.587 74.6914H121.211C121.563 74.6914 121.905 74.5474 122.153 74.2994C122.401 74.0514 122.544 73.7088 122.544 73.3568V64.4448C122.544 64.0941 122.401 63.7514 122.153 63.5035C121.905 63.2555 121.563 63.1115 121.211 63.1115H110.587C110.235 63.1115 109.891 63.2555 109.643 63.5035C109.393 63.7514 109.252 64.0941 109.252 64.4448V73.3568C109.252 73.7088 109.393 74.0514 109.643 74.2994C109.891 74.5474 110.235 74.6914 110.587 74.6914Z" fill="#173F5F"/>
<path d="M77.7969 19.4297H71.121L74.9676 15.9057H81.6436L77.7969 19.4297ZM86.3103 14.0896C86.1103 13.575 85.6183 13.239 85.0703 13.239H74.4503C74.1143 13.239 73.7956 13.363 73.5503 13.5896L66.7956 19.7803C66.3863 20.1537 66.2529 20.7337 66.4529 21.2484C66.6543 21.7617 67.1436 22.0977 67.6969 22.0977H78.3156C78.653 22.0977 78.9716 21.975 79.2183 21.7484L85.9703 15.555C86.377 15.1817 86.513 14.6043 86.3103 14.0896Z" fill="#173F5F"/>
<path d="M19.6543 65.8506C19.6543 65.2146 19.9837 64.5785 20.717 64.0225C21.445 63.4759 22.541 63.0919 23.7796 63.0919C25.0196 63.0919 26.1197 63.4759 26.845 64.0225C27.581 64.5812 27.913 65.2173 27.913 65.8506V83.3359H19.6543V65.8506ZM18.3223 86.0039H29.249C29.6023 86.0039 29.9383 85.8625 30.1903 85.6105C30.4396 85.3585 30.581 85.0265 30.581 84.6719V65.8506C30.4903 62.5213 27.2623 60.4332 23.7796 60.4279C20.2956 60.4332 17.073 62.5239 16.9863 65.8506V84.6719C16.9863 85.0199 17.1303 85.3639 17.377 85.6132C17.6263 85.8599 17.9703 86.0039 18.3223 86.0039Z" fill="#173F5F"/>
<path d="M19.8992 43.8212H27.8565V50.0625H19.8992V43.8212ZM18.5632 52.7305H29.1925C29.5432 52.7305 29.8872 52.5892 30.1378 52.3398C30.3832 52.0918 30.5271 51.7478 30.5271 51.3985V42.4865C30.5271 42.1371 30.3832 41.7931 30.1378 41.5438C29.8872 41.2945 29.5432 41.1545 29.1925 41.1545H18.5632C18.2112 41.1545 17.8671 41.2945 17.6218 41.5438C17.3711 41.7931 17.2285 42.1371 17.2285 42.4865V51.3985C17.2285 51.7478 17.3711 52.0918 17.6218 52.3398C17.8698 52.5892 18.2112 52.7305 18.5632 52.7305Z" fill="#173F5F"/>
<path d="M60.8346 65.8506C60.8373 65.2119 61.1666 64.5785 61.8973 64.0225C62.6173 63.4772 63.7053 63.0945 64.9346 63.0945H64.9493C66.1919 63.0919 67.2892 63.4759 68.0146 64.0225C68.7452 64.5785 69.0746 65.2119 69.0746 65.8506V83.3359H60.8346V65.8506ZM58.56 85.6132C58.808 85.8599 59.1506 86.0039 59.5026 86.0039H70.4066C70.7599 86.0039 71.0986 85.8625 71.3479 85.6105C71.5999 85.3585 71.7386 85.0265 71.7386 84.6719V65.8506C71.6546 62.5279 68.4399 60.4332 64.9493 60.4279C61.468 60.4332 58.2546 62.5279 58.168 65.8506L58.1706 84.6719C58.1706 85.0199 58.3106 85.3639 58.56 85.6132Z" fill="#173F5F"/>
<path d="M40.25 65.8506C40.25 65.2119 40.5794 64.5785 41.31 64.0225C42.0327 63.4759 43.1287 63.0919 44.374 63.0919C45.618 63.0919 46.7114 63.4759 47.4367 64.0225C48.1674 64.5785 48.4967 65.2119 48.4967 65.8506V83.3359H40.25V65.8506ZM38.918 86.0039H49.8314C50.1874 86.0039 50.522 85.8625 50.774 85.6105C51.026 85.3585 51.1633 85.0265 51.1633 84.6719V65.8506C51.0807 62.5279 47.8634 60.4332 44.374 60.4279C40.8794 60.4332 37.6647 62.5279 37.582 65.8506V84.6719C37.582 85.0199 37.7247 85.3639 37.9727 85.6132C38.2207 85.8599 38.5647 86.0039 38.918 86.0039Z" fill="#173F5F"/>
<path d="M40.5535 43.8212H48.5081V50.0625H40.5535V43.8212ZM39.2188 52.7305H49.8441C50.1988 52.7305 50.5335 52.5932 50.7855 52.3398C51.0375 52.0878 51.1788 51.7532 51.1788 51.3985V42.4865C51.1788 42.1371 51.0348 41.7931 50.7855 41.5438C50.5388 41.2945 50.1961 41.1545 49.8441 41.1545H39.2188C38.8681 41.1545 38.5254 41.2945 38.2761 41.5438C38.0268 41.7931 37.8828 42.1371 37.8828 42.4865V51.3985C37.8828 51.7478 38.0268 52.0945 38.2761 52.3398C38.5254 52.5892 38.8681 52.7305 39.2188 52.7305Z" fill="#173F5F"/>
</svg>
