<svg width="148" height="126" viewBox="0 0 148 126" fill="none" xmlns="http://www.w3.org/2000/svg">
<path d="M1.49414 36.8544V123.687H146.447V88.3481L122.537 52.5045H110.582V37.3593L86.6726 1.51562H24.9058L1.49414 36.8544Z" fill="white" stroke="black"/>
<path d="M39.6306 102.875H46.8022V116.588H39.6306V102.875ZM38.3036 119.281H48.1292C48.4812 119.281 48.8213 119.137 49.071 118.887C49.3181 118.635 49.4602 118.29 49.4602 117.935V101.53C49.4602 101.176 49.3181 100.83 49.071 100.578C48.8213 100.329 48.4812 100.183 48.1292 100.183H38.3036C37.9503 100.183 37.6103 100.329 37.3619 100.578C37.1161 100.827 36.9727 101.176 36.9727 101.53V117.935C36.9727 118.29 37.1161 118.635 37.3645 118.887C37.6103 119.137 37.9503 119.281 38.3036 119.281Z" fill="#173F5F"/>
<path d="M39.6306 47.811H46.8022V61.5158H39.6306V47.811ZM38.3036 64.2109H48.1292C48.4812 64.2109 48.8213 64.0653 49.071 63.8165C49.3181 63.5646 49.4602 63.2186 49.4602 62.8647V46.4648C49.4602 46.1081 49.3181 45.7621 49.071 45.513C48.8213 45.2613 48.4812 45.1159 48.1292 45.1159H38.3036C37.9503 45.1159 37.6103 45.2613 37.3619 45.513C37.1161 45.7621 36.9727 46.1081 36.9727 46.4648V62.8647C36.9727 63.2186 37.1161 63.5646 37.3645 63.8165C37.6103 64.0653 37.9503 64.2109 38.3036 64.2109Z" fill="#173F5F"/>
<path d="M46.8015 89.0559H39.6273V75.338H46.8015V89.0559ZM48.1285 72.6439H38.3029C37.9496 72.6439 37.6096 72.7879 37.3612 73.0409C37.1154 73.2902 36.9746 73.6373 36.9746 73.9927V90.4048C36.9746 90.755 37.1154 91.1037 37.3612 91.3555C37.6096 91.6058 37.9496 91.75 38.3029 91.75H48.1285C48.4845 91.75 48.8192 91.6085 49.0703 91.3525C49.3187 91.101 49.4568 90.7619 49.4568 90.4048V73.9927C49.4568 73.6373 49.3174 73.2902 49.0703 73.0409C48.8206 72.7879 48.4805 72.6439 48.1285 72.6439Z" fill="#173F5F"/>
<path d="M17.667 47.811H24.836V61.5158H17.667V47.811ZM16.34 64.2109H26.1669C26.5163 64.2109 26.8563 64.0653 27.1047 63.8165C27.3518 63.5646 27.4939 63.2186 27.4939 62.8647V46.4648C27.4939 46.1081 27.3518 45.7621 27.1047 45.513C26.8563 45.2613 26.5163 45.1159 26.1669 45.1159H16.34C15.9907 45.1159 15.6466 45.2613 15.4009 45.513C15.1525 45.7621 15.0117 46.1081 15.0117 46.4648V62.8647C15.0117 63.2186 15.1525 63.5646 15.4009 63.8165C15.6466 64.0653 15.9907 64.2109 16.34 64.2109Z" fill="#173F5F"/>
<path d="M145.213 122.45H100.551V89.2209L121.815 56.6125L122.845 55.0333L145.213 88.765V122.45ZM66.0094 87.5881L83.1925 61.2528L87.9559 53.9553H120.36L98.4336 87.5881H66.0094ZM97.8957 122.448H64.7236V90.2831H97.8957V122.448ZM90.5873 47.8122V51.2628H87.2412C86.7989 51.2628 86.3765 51.4873 86.1347 51.867L83.413 56.0361V47.8122H90.5873ZM64.5921 37.9631L76.1763 20.1982L86.8866 3.77538L109.254 37.4973V51.2601H93.2426V46.466C93.2426 46.1065 93.1044 45.7673 92.8534 45.5155C92.601 45.2598 92.2689 45.1211 91.9143 45.1211H82.0847C81.7327 45.1211 81.3926 45.2624 81.1456 45.5128C80.8972 45.7646 80.755 46.1119 80.755 46.466V60.1022L64.5921 84.8782V37.9631ZM62.4707 36.3288H3.79623L25.7494 2.69301H84.4066L62.4707 36.3288ZM61.9341 122.448H2.8465L2.84914 39.024H61.9341V122.448ZM123.937 51.8565C123.912 51.8186 123.879 51.7902 123.851 51.7555C123.82 51.7191 123.791 51.6813 123.759 51.6477C123.704 51.5935 123.642 51.5467 123.58 51.5036C123.551 51.4836 123.524 51.462 123.494 51.4432C123.413 51.3958 123.324 51.3596 123.233 51.3301C123.216 51.3243 123.2 51.3153 123.183 51.3111C123.069 51.2801 122.95 51.2601 122.83 51.2612C122.826 51.2612 122.823 51.2628 122.82 51.2628H111.909V37.0894C111.909 36.8202 111.832 36.559 111.682 36.3382L87.9798 0.595551C87.9572 0.56324 87.928 0.537674 87.9027 0.506714C87.8682 0.463631 87.835 0.419197 87.7951 0.381508C87.75 0.337082 87.6995 0.299385 87.6477 0.261688C87.6092 0.233414 87.5706 0.201111 87.5295 0.178223C87.4657 0.141876 87.398 0.116295 87.3289 0.0907135C87.2917 0.0772476 87.2558 0.0584106 87.216 0.0476379C87.1376 0.0261002 87.0553 0.0207138 86.9716 0.0139847C86.9397 0.0112915 86.9105 0.000526428 86.8773 0.000526428H25.0361C24.5897 0.000526428 24.17 0.228035 23.9256 0.604988L0.220408 36.9346C-0.0492404 37.3452 -0.0731624 37.881 0.157965 38.3158C0.167263 38.3334 0.181875 38.3455 0.191173 38.363V123.797C0.191173 124.151 0.334639 124.497 0.580378 124.75C0.830102 125 1.17014 125.145 1.51949 125.145H63.2651C63.2691 125.145 63.273 125.141 63.277 125.141H63.3833C63.3873 125.141 63.3913 125.145 63.3966 125.145H146.541C146.893 125.145 147.233 125 147.482 124.75C147.729 124.497 147.872 124.151 147.872 123.797V88.3553C147.872 88.0861 147.791 87.8262 147.643 87.6028L123.937 51.8565Z" fill="#173F5F"/>
<path d="M17.667 75.338H24.836V89.0559H17.667V75.338ZM16.34 91.75H26.1669C26.5216 91.75 26.8537 91.6085 27.1047 91.3525C27.3571 91.101 27.4939 90.7619 27.4939 90.4048V73.9927C27.4939 73.6373 27.3518 73.2902 27.1047 73.0409C26.859 72.7879 26.5163 72.6439 26.1669 72.6439H16.34C15.9907 72.6439 15.6466 72.7879 15.4009 73.0409C15.1525 73.2902 15.0117 73.6373 15.0117 73.9927V90.4048C15.0117 90.755 15.1525 91.1037 15.4009 91.3555C15.6466 91.6058 15.9907 91.75 16.34 91.75Z" fill="#173F5F"/>
<path d="M17.667 102.875H24.836V116.588H17.667V102.875ZM16.34 119.281H26.1669C26.5163 119.281 26.8563 119.137 27.1047 118.887C27.3518 118.635 27.4939 118.29 27.4939 117.935V101.53C27.4939 101.176 27.3518 100.83 27.1047 100.578C26.8563 100.329 26.5163 100.183 26.1669 100.183H16.34C15.9907 100.183 15.6466 100.329 15.4009 100.578C15.1525 100.827 15.0117 101.176 15.0117 101.53V117.935C15.0117 118.29 15.1525 118.635 15.4009 118.887C15.6466 119.137 15.9907 119.281 16.34 119.281Z" fill="#173F5F"/>
<path d="M119.376 99.0648H126.544V112.784H119.376V99.0648ZM117.11 96.7677C116.863 97.018 116.721 97.3641 116.721 97.7211V114.131C116.721 114.487 116.858 114.828 117.11 115.082C117.361 115.335 117.693 115.473 118.048 115.473H127.872C128.227 115.473 128.559 115.335 128.811 115.082C129.062 114.828 129.2 114.487 129.2 114.131V97.7211C129.2 97.3589 129.062 97.0223 128.811 96.7677C128.559 96.5106 128.227 96.3733 127.872 96.3733H118.048C117.7 96.3733 117.358 96.5175 117.11 96.7677Z" fill="#173F5F"/>
<path d="M75.5928 99.0671H82.7671V112.781H75.5928V99.0671ZM74.2658 115.477H84.0954C84.45 115.477 84.7848 115.335 85.0345 115.078C85.2856 114.828 85.4237 114.487 85.4237 114.13V97.7209C85.4237 97.3638 85.2829 97.0177 85.0372 96.7675C84.7874 96.5172 84.4447 96.373 84.0954 96.373H74.2658C73.9138 96.373 73.5724 96.5172 73.324 96.7675C73.0783 97.0177 72.9375 97.3638 72.9375 97.7209V114.13C72.9375 114.484 73.0783 114.83 73.324 115.082C73.5724 115.331 73.9138 115.477 74.2658 115.477Z" fill="#173F5F"/>
</svg>
