<svg width="42" height="42" viewBox="0 0 42 42" fill="none" xmlns="http://www.w3.org/2000/svg">
<path d="M37.3336 0H4.66691C2.10024 0 0.000244141 2.1 0.000244141 4.66667V37.3333C0.000244141 39.9 2.10024 42 4.66691 42H37.3336C39.9002 42 42.0002 39.9 42.0002 37.3333V4.66667C42.0002 2.1 39.9002 0 37.3336 0ZM19.5536 13.72L22.5636 16.73L29.4702 9.82333C30.3802 8.91333 31.8502 8.91333 32.7602 9.82333C33.6702 10.7333 33.6702 12.2033 32.7602 13.1133L24.1969 21.6767C23.2869 22.5867 21.8169 22.5867 20.9069 21.6767L17.8969 18.6667L12.5302 24.0333C11.6202 24.9433 10.1502 24.9433 9.24024 24.0333C8.33024 23.1233 8.33024 21.6533 9.24024 20.7433L16.2402 13.7433C17.1502 12.7867 18.6202 12.7867 19.5536 13.72ZM4.66691 30.3333H8.68024L4.66691 34.3467V30.3333ZM6.62691 37.3333L13.6269 30.3333H17.8969L10.8969 37.3333H6.62691ZM15.8669 37.3333L22.8669 30.3333H26.6469L19.6469 37.3333H15.8669ZM24.5702 37.3333L31.5702 30.3333H35.3502L28.3502 37.3333H24.5702ZM37.3336 37.3333H33.2969L37.3336 33.2967V37.3333Z" fill="#173F5F"/>
</svg>
