<svg width="41" height="41" viewBox="0 0 41 41" fill="none" xmlns="http://www.w3.org/2000/svg">
<g clip-path="url(#clip0_1812_31612)">
<path d="M40.9856 20.4928C40.9856 27.9676 36.979 34.5161 30.9977 38.0919C30.7823 38.2212 30.5669 38.3432 30.3515 38.4653C29.8345 36.3614 29.3031 34.2145 28.7574 32.0532C28.9154 31.9383 29.0805 31.8163 29.2385 31.6942C29.2457 31.687 29.2457 31.687 29.2529 31.6798C32.7138 28.9656 34.7028 24.8872 34.7028 20.4928C34.7028 12.659 28.3266 6.28283 20.4928 6.28283C12.659 6.28283 6.28283 12.659 6.28283 20.4928C6.28283 25.0739 8.50157 29.3893 12.2282 32.0532L10.6341 38.4581C10.4187 38.336 10.2033 38.214 9.98791 38.0847C4.00665 34.5161 0 27.9748 0 20.4928C0 9.17652 9.17652 0 20.4928 0C31.8091 0 40.9856 9.17652 40.9856 20.4928Z" fill="url(#paint0_radial_1812_31612)"/>
<path fill-rule="evenodd" clip-rule="evenodd" d="M30.9977 38.0919C36.979 34.5161 40.9856 27.9676 40.9856 20.4928C40.9856 9.17652 31.8091 0 20.4928 0C9.17652 0 0 9.17652 0 20.4928C0 27.9748 4.00665 34.5161 9.98791 38.0847C10.2032 38.2139 10.4185 38.3359 10.6338 38.4579L10.6341 38.4581L12.2282 32.0532C8.50157 29.3893 6.28283 25.0739 6.28283 20.4928C6.28283 12.659 12.659 6.28283 20.4928 6.28283C28.3266 6.28283 34.7028 12.659 34.7028 20.4928C34.7028 24.8872 32.7138 28.9656 29.2529 31.6798L29.2385 31.6942C29.0822 31.815 28.9189 31.9357 28.7625 32.0495C28.4702 30.8822 28.1762 29.7112 27.8822 28.5407C27.1208 25.5089 26.3603 22.4808 25.6356 19.5307C25.054 17.1612 22.9358 15.4954 20.4945 15.4954C19.2738 15.4954 18.1393 15.9118 17.2274 16.6227C16.3227 17.3407 15.6405 18.346 15.3533 19.5307L12.2442 32.0605L10.6502 38.4654C10.8512 38.5731 11.0594 38.6808 11.2677 38.7885L11.282 38.7957C11.3359 38.8208 11.3897 38.8478 11.4436 38.8747C11.4974 38.9016 11.5513 38.9285 11.6051 38.9537C11.641 38.8819 11.6698 38.8029 11.6913 38.7239L11.8062 38.2572L12.9263 33.7694C14.8291 34.8609 16.9832 35.5358 19.1733 35.7225H19.1804H19.2307C19.2881 35.7225 19.3456 35.7153 19.403 35.701C19.8339 37.4745 20.2647 39.2337 20.6955 40.9857C23.941 40.9498 26.9999 40.1672 29.7212 38.7957C29.774 38.7684 29.8271 38.7412 29.8805 38.7138C30.0381 38.633 30.1976 38.5512 30.3531 38.4654C30.353 38.4651 30.353 38.4648 30.3529 38.4645C30.5678 38.3427 30.7828 38.2209 30.9977 38.0919ZM13.192 32.6852L15.9493 21.6059C17.0048 25.9213 18.0747 30.2941 19.1445 34.6383C17.0479 34.4444 14.9943 33.7694 13.192 32.6852Z" fill="#153E60"/>
</g>
<path fill-rule="evenodd" clip-rule="evenodd" d="M34.1608 35.785C30.4031 39.1435 25.5398 41 20.5 41L19.1717 34.6812C19.3939 34.6812 19.621 34.6764 19.8521 34.6667C20.0668 34.6764 20.2828 34.6813 20.4998 34.6813C23.3378 34.6813 25.9809 33.8477 28.1979 32.412C28.8682 32.0335 29.4803 31.6084 30.0072 31.1375C32.6224 28.8002 34.2849 25.5814 34.6773 22.096C35.0696 18.6106 34.1643 15.1027 32.1342 12.2425C30.1042 9.38224 27.0916 7.37006 23.6719 6.59025C20.2522 5.81045 16.6651 6.31767 13.5958 8.01506C10.5264 9.71244 8.18981 12.481 7.03235 15.792C5.87489 19.103 5.97767 22.7243 7.32103 25.9643C8.13642 27.687 8.89603 28.8633 9.93395 29.959C10.7383 30.8569 11.6553 31.6515 12.6629 32.3209C12.8283 32.4466 12.9992 32.575 13.1761 32.7066L11.6127 38.9734C7.07108 36.7885 3.49347 33.0071 1.56319 28.3516C-0.36709 23.696 -0.514761 18.4926 1.14838 13.7351C2.81153 8.97753 6.16892 4.99938 10.5793 2.56041C14.9897 0.121452 20.144 -0.607384 25.0577 0.513115C29.9714 1.63361 34.3002 4.52492 37.2172 8.63479C40.1342 12.7447 41.4351 17.7851 40.8713 22.7933C40.3075 27.8015 37.9186 32.4265 34.1608 35.785Z" fill="#153E60"/>
<defs>
<radialGradient id="paint0_radial_1812_31612" cx="0" cy="0" r="1" gradientUnits="userSpaceOnUse" gradientTransform="translate(20.4942 19.2326) scale(19.8735)">
<stop/>
<stop offset="0.0254047" stop-color="#060A0B"/>
<stop offset="0.2177" stop-color="#345057"/>
<stop offset="0.3765" stop-color="#55848F"/>
<stop offset="0.494" stop-color="#69A4B2"/>
<stop offset="0.5573" stop-color="#71B0BF"/>
<stop offset="1" stop-color="#123D61"/>
</radialGradient>
<clipPath id="clip0_1812_31612">
<rect width="40.9856" height="40.9856" fill="white"/>
</clipPath>
</defs>
</svg>
