<svg width="210" height="261" viewBox="0 0 210 261" fill="none" xmlns="http://www.w3.org/2000/svg">
<rect width="209.656" height="261" rx="8.02254" fill="url(#paint0_linear_4294_45492)" fill-opacity="0.8"/>
<path d="M115.525 143.337C121.151 143.337 125.9 144.513 129.858 146.675C140.705 152.536 145.475 165.628 145.475 181.096V188.263V196.82H132.639H77.0164H64.1803V188.263V181.096C64.1803 165.929 68.7585 153.071 79.1557 147.016C83.2419 144.663 88.2051 143.337 94.1311 143.337" stroke="#100F0D" stroke-width="4.27869" stroke-miterlimit="10" stroke-linecap="round" stroke-linejoin="round"/>
<path d="M115.524 141.198V148.793C115.524 154.698 110.732 159.489 104.828 159.489C101.875 159.489 99.2011 158.291 97.2543 156.345C95.3289 154.419 94.1309 151.745 94.1309 148.793V143.337V141.198" stroke="#100F0D" stroke-width="4.27869" stroke-miterlimit="10" stroke-linecap="round" stroke-linejoin="round"/>
<path d="M102.688 119.804H106.967" stroke="#100F0D" stroke-width="4.27869" stroke-miterlimit="10" stroke-linecap="round" stroke-linejoin="round"/>
<path d="M77.0164 181.845V196.82" stroke="#100F0D" stroke-width="4.27869" stroke-miterlimit="10" stroke-linecap="round" stroke-linejoin="round"/>
<path d="M132.639 181.845V196.82" stroke="#100F0D" stroke-width="4.27869" stroke-miterlimit="10" stroke-linecap="round" stroke-linejoin="round"/>
<path d="M130.5 145.477C141.924 142.054 141.197 123.292 141.197 106.968C141.197 83.3286 124.916 64.1815 104.828 64.1815C84.7394 64.1815 68.459 83.3286 68.459 106.968C68.459 123.292 67.7316 142.054 79.1557 145.477" stroke="#100F0D" stroke-width="4.27869" stroke-miterlimit="10" stroke-linecap="round" stroke-linejoin="round"/>
<path d="M111.246 128.361C111.246 128.361 109.106 130.5 104.828 130.5C100.549 130.5 98.4097 128.361 98.4097 128.361" stroke="#100F0D" stroke-width="4.27869" stroke-miterlimit="10" stroke-linecap="round" stroke-linejoin="round"/>
<path d="M130.5 100.549V118.327C130.5 119.204 130.457 120.038 130.371 120.895C129.43 129.901 123.568 137.495 115.46 141.09C112.23 142.523 108.614 143.336 104.828 143.336C101.041 143.336 97.4255 142.523 94.1951 141.09C86.087 137.495 80.2252 129.901 79.2839 120.895C79.1983 120.038 79.1555 119.204 79.1555 118.327V104.828V89.8523" stroke="#100F0D" stroke-width="4.27869" stroke-miterlimit="10" stroke-linecap="round" stroke-linejoin="round"/>
<path d="M79.1555 89.8531C79.1555 89.8531 87.7129 100.55 98.4096 100.55" stroke="#100F0D" stroke-width="4.27869" stroke-miterlimit="10" stroke-linecap="round" stroke-linejoin="round"/>
<path d="M95.2007 89.8531C95.2007 89.8531 103.758 100.55 114.455 100.55" stroke="#100F0D" stroke-width="4.27869" stroke-miterlimit="10" stroke-linecap="round" stroke-linejoin="round"/>
<path d="M111.246 89.8531C111.246 89.8531 119.803 100.55 130.5 100.55" stroke="#100F0D" stroke-width="4.27869" stroke-miterlimit="10" stroke-linecap="round" stroke-linejoin="round"/>
<path d="M98.4097 113.386C98.4097 113.386 98.4097 113.386 98.4311 113.364C98.6878 113.129 100.806 111.246 104.828 111.246C108.85 111.246 110.968 113.129 111.224 113.364C111.246 113.386 111.246 113.386 111.246 113.386" stroke="#100F0D" stroke-width="4.27869" stroke-miterlimit="10" stroke-linecap="round" stroke-linejoin="round"/>
<path d="M124.082 111.246C124.082 114.797 121.215 117.664 117.664 117.664C114.818 117.664 112.401 115.803 111.567 113.236C111.353 112.615 111.246 111.952 111.246 111.246C111.246 107.694 114.112 104.828 117.664 104.828C121.215 104.828 124.082 107.694 124.082 111.246Z" stroke="#100F0D" stroke-width="4.27869" stroke-miterlimit="10" stroke-linecap="round" stroke-linejoin="round"/>
<path d="M85.5736 111.246C85.5736 107.694 88.4403 104.828 91.9916 104.828C95.543 104.828 98.4097 107.694 98.4097 111.246C98.4097 111.952 98.3027 112.615 98.0888 113.236C97.2544 115.803 94.837 117.664 91.9916 117.664C88.4403 117.664 85.5736 114.797 85.5736 111.246Z" stroke="#100F0D" stroke-width="4.27869" stroke-miterlimit="10" stroke-linecap="round" stroke-linejoin="round"/>
<path d="M124.082 111.246L130.5 104.828" stroke="#100F0D" stroke-width="4.27869" stroke-miterlimit="10" stroke-linecap="round" stroke-linejoin="round"/>
<path d="M85.5736 111.246L79.1555 104.828" stroke="#100F0D" stroke-width="4.27869" stroke-miterlimit="10" stroke-linecap="round" stroke-linejoin="round"/>
<path d="M132.639 188.262H145.475" stroke="#100F0D" stroke-width="4.27869" stroke-miterlimit="10" stroke-linecap="round" stroke-linejoin="round"/>
<path d="M64.1803 188.262H77.0164" stroke="#100F0D" stroke-width="4.27869" stroke-miterlimit="10" stroke-linecap="round" stroke-linejoin="round"/>
<path d="M115.525 183.984H124.082" stroke="#100F0D" stroke-width="4.27869" stroke-miterlimit="10" stroke-linecap="round" stroke-linejoin="round"/>
<defs>
<linearGradient id="paint0_linear_4294_45492" x1="4.76491" y1="-11.4682" x2="460.548" y2="198.362" gradientUnits="userSpaceOnUse">
<stop offset="0.110255" stop-color="white"/>
<stop offset="1" stop-color="white" stop-opacity="0"/>
</linearGradient>
</defs>
</svg>
