<svg width="210" height="255" viewBox="0 0 210 255" fill="none" xmlns="http://www.w3.org/2000/svg">
<rect width="209.656" height="254.583" rx="8.02254" fill="url(#paint0_linear_4294_45514)" fill-opacity="0.8"/>
<path d="M115.525 136.919C117.921 136.919 120.146 137.133 122.221 137.539C138.501 140.748 145.476 155.98 145.476 174.678V190.402H132.639H115.525H94.1312H77.0165H64.1804V174.678C64.1804 155.98 71.1547 140.748 87.4351 137.539C89.5102 137.133 91.7352 136.919 94.1312 136.919" stroke="#100F0D" stroke-width="4.27869" stroke-miterlimit="10" stroke-linecap="round" stroke-linejoin="round"/>
<path d="M115.524 134.78V142.375C115.524 148.279 110.732 153.071 104.828 153.071C101.875 153.071 99.2011 151.873 97.2543 149.926C95.3289 148.001 94.1309 145.327 94.1309 142.375V136.919V134.78" stroke="#100F0D" stroke-width="4.27869" stroke-miterlimit="10" stroke-linecap="round" stroke-linejoin="round"/>
<path d="M77.0166 175.427V190.402" stroke="#100F0D" stroke-width="4.27869" stroke-miterlimit="10" stroke-linecap="round" stroke-linejoin="round"/>
<path d="M132.639 175.427V190.402" stroke="#100F0D" stroke-width="4.27869" stroke-miterlimit="10" stroke-linecap="round" stroke-linejoin="round"/>
<path d="M102.689 113.386H106.967" stroke="#100F0D" stroke-width="4.27869" stroke-miterlimit="10" stroke-linecap="round" stroke-linejoin="round"/>
<path d="M111.246 121.943C111.246 121.943 109.107 124.082 104.828 124.082C100.549 124.082 98.4099 121.943 98.4099 121.943" stroke="#100F0D" stroke-width="4.27869" stroke-miterlimit="10" stroke-linecap="round" stroke-linejoin="round"/>
<path d="M130.5 98.4098V89.1892C130.5 75.369 119.012 64.1803 104.828 64.1803C90.644 64.1803 79.1558 75.369 79.1558 89.1892V98.4098V100.549V111.909C79.1558 122.028 85.3171 130.735 94.1739 134.672C97.4258 136.126 101.041 136.918 104.828 136.918C108.636 136.918 112.23 136.105 115.482 134.672C124.339 130.735 130.5 122.028 130.5 111.909V100.549V98.4098Z" stroke="#100F0D" stroke-width="4.27869" stroke-miterlimit="10" stroke-linecap="round" stroke-linejoin="round"/>
<path d="M98.4099 106.968C98.4099 106.968 98.4099 106.968 98.4313 106.946C98.688 106.711 100.806 104.828 104.828 104.828C108.85 104.828 110.968 106.711 111.225 106.946C111.246 106.968 111.246 106.968 111.246 106.968" stroke="#100F0D" stroke-width="4.27869" stroke-miterlimit="10" stroke-linecap="round" stroke-linejoin="round"/>
<path d="M124.082 104.828C124.082 108.379 121.215 111.246 117.664 111.246C114.819 111.246 112.401 109.385 111.567 106.818C111.353 106.197 111.246 105.534 111.246 104.828C111.246 101.277 114.113 98.41 117.664 98.41C121.215 98.41 124.082 101.277 124.082 104.828Z" stroke="#100F0D" stroke-width="4.27869" stroke-miterlimit="10" stroke-linecap="round" stroke-linejoin="round"/>
<path d="M85.5737 104.828C85.5737 101.277 88.4405 98.41 91.9918 98.41C95.5431 98.41 98.4098 101.277 98.4098 104.828C98.4098 105.534 98.3028 106.197 98.0889 106.818C97.2546 109.385 94.8371 111.246 91.9918 111.246C88.4405 111.246 85.5737 108.379 85.5737 104.828Z" stroke="#100F0D" stroke-width="4.27869" stroke-miterlimit="10" stroke-linecap="round" stroke-linejoin="round"/>
<path d="M124.082 104.828L128.639 100.271L130.5 98.4101" stroke="#100F0D" stroke-width="4.27869" stroke-miterlimit="10" stroke-linecap="round" stroke-linejoin="round"/>
<path d="M85.5738 104.828L81.017 100.271L79.1558 98.4101" stroke="#100F0D" stroke-width="4.27869" stroke-miterlimit="10" stroke-linecap="round" stroke-linejoin="round"/>
<path d="M130.5 100.55C129.794 100.55 129.195 100.443 128.639 100.272C120.766 97.5761 127.12 77.017 116.338 77.017C108.401 77.017 104.828 81.9589 104.828 81.9589C104.828 81.9589 101.255 77.017 93.3182 77.017C82.5359 77.017 88.8898 97.5761 81.017 100.272C80.4608 100.443 79.8617 100.55 79.1558 100.55" stroke="#100F0D" stroke-width="4.27869" stroke-miterlimit="10" stroke-linecap="round" stroke-linejoin="round"/>
<path d="M121.942 139.059V142.375C121.942 147.873 119.332 152.772 115.289 155.895C112.401 158.141 108.764 159.489 104.828 159.489C100.891 159.489 97.2544 158.141 94.3662 155.895C90.3229 152.772 87.7129 147.873 87.7129 142.375V139.059" stroke="#100F0D" stroke-width="4.27869" stroke-miterlimit="10" stroke-linecap="round" stroke-linejoin="round"/>
<path d="M94.1309 156.173V190.402" stroke="#100F0D" stroke-width="4.27869" stroke-miterlimit="10" stroke-linecap="round" stroke-linejoin="round"/>
<path d="M115.525 156.173V190.402" stroke="#100F0D" stroke-width="4.27869" stroke-miterlimit="10" stroke-linecap="round" stroke-linejoin="round"/>
<defs>
<linearGradient id="paint0_linear_4294_45514" x1="4.76491" y1="-11.1862" x2="456.515" y2="202.03" gradientUnits="userSpaceOnUse">
<stop offset="0.110255" stop-color="white"/>
<stop offset="1" stop-color="white" stop-opacity="0"/>
</linearGradient>
</defs>
</svg>
