<svg width="148" height="126" viewBox="0 0 148 126" fill="none" xmlns="http://www.w3.org/2000/svg">
<path d="M146.895 124.179H1.33576L0.890625 64.4718L37.3916 32.7125L65.435 52.4033V33.6653L102.381 0.953125L146.895 33.3477V124.179Z" fill="white" stroke="black"/>
<path d="M66.1768 34.6438H127.425V123.448H66.1744L66.1768 34.6438ZM102.06 2.33903L126.564 32.9474L96.9136 32.9482H67.2605L102.06 2.33903ZM145.496 33.569V123.448H129.798V33.796C129.798 33.7037 129.77 33.6156 129.73 33.5292C129.726 33.5208 129.721 33.5132 129.716 33.5047C129.706 33.4844 129.696 33.4649 129.683 33.4463C129.667 33.4225 129.66 33.398 129.642 33.3759L107.835 6.13491L145.496 33.569ZM64.1505 124.895C64.3713 125.054 64.6776 125.145 64.9898 125.145H146.683C146.996 125.145 147.302 125.054 147.525 124.895C147.744 124.738 147.872 124.52 147.872 124.298V33.2243C147.872 33.0016 147.749 32.789 147.532 32.6315L103.094 0.263237L103.079 0.252235C103.077 0.250542 103.074 0.250534 103.073 0.24884C102.983 0.183632 102.878 0.135353 102.769 0.0963974C102.739 0.0853806 102.71 0.0743637 102.679 0.0650482C102.569 0.0328674 102.455 0.0100021 102.337 0.00238037C102.334 0.00153351 102.331 0.000679016 102.328 0.000679016C102.31 -0.000167847 102.293 0.00238037 102.274 0.00238037C102.167 -0.00100708 102.062 0.00830841 101.956 0.0260925C101.922 0.0311737 101.888 0.0387955 101.855 0.0472641C101.738 0.0752182 101.624 0.111649 101.519 0.166695C101.518 0.168388 101.517 0.168373 101.514 0.16922C101.506 0.172607 101.503 0.179398 101.495 0.183632C101.429 0.221741 101.366 0.26239 101.311 0.311516L64.0686 33.0651C63.8965 33.215 63.8027 33.409 63.8027 33.5995V33.7969C63.8027 33.7986 63.8039 33.7994 63.8039 33.8003V124.298C63.8039 124.52 63.9297 124.738 64.1505 124.895Z" fill="#173F5F"/>
<path d="M112.649 113.725V42.2985H116.294L116.296 113.725H112.649ZM117.483 40.6072H111.464C111.153 40.6072 110.848 40.6953 110.626 40.8545C110.404 41.0103 110.275 41.2297 110.275 41.4541V114.57C110.275 114.793 110.404 115.014 110.626 115.171C110.848 115.329 111.153 115.418 111.464 115.418H117.483C117.8 115.418 118.097 115.329 118.322 115.171C118.545 115.01 118.671 114.796 118.671 114.57V41.4541C118.671 41.2297 118.543 41.0103 118.322 40.8545C118.101 40.6978 117.795 40.6072 117.483 40.6072Z" fill="#173F5F"/>
<path d="M79.7674 113.723H76.1268V42.3002H79.7674V113.723ZM80.9556 40.6055H74.9421C74.6287 40.6055 74.3225 40.6978 74.1005 40.8545C73.8809 41.0103 73.7539 41.2297 73.7539 41.4541V114.57C73.7539 114.793 73.8809 115.011 74.1029 115.171C74.3225 115.329 74.6287 115.418 74.9421 115.418H80.9556C81.2678 115.418 81.574 115.326 81.796 115.171C82.0156 115.011 82.1426 114.793 82.1426 114.57V41.4541C82.1426 41.2297 82.0192 41.0129 81.796 40.8545C81.574 40.6978 81.2678 40.6055 80.9556 40.6055Z" fill="#173F5F"/>
<path d="M88.2991 113.723V42.3002H91.9361L91.9397 113.723H88.2991ZM93.1267 40.6055H87.1132C86.7987 40.6055 86.4936 40.6978 86.2728 40.8545C86.052 41.0103 85.9238 41.2297 85.9238 41.4541V114.57C85.9238 114.793 86.052 115.011 86.2728 115.171C86.4936 115.329 86.7987 115.418 87.1132 115.418H93.1267C93.4389 115.418 93.7463 115.326 93.9659 115.171C94.1879 115.011 94.3149 114.793 94.3149 114.57V41.4541C94.3149 41.2297 94.1879 41.0129 93.9659 40.8545C93.7463 40.6978 93.4389 40.6055 93.1267 40.6055Z" fill="#173F5F"/>
<path d="M104.106 113.725H100.472V42.3002H104.106V113.725ZM105.295 40.6072H99.2859C98.9737 40.6072 98.6686 40.6953 98.4478 40.8545C98.2247 41.0103 98.0977 41.2297 98.0977 41.4541V114.57C98.0977 114.793 98.2247 115.014 98.4478 115.171C98.6686 115.329 98.9737 115.418 99.2859 115.418H105.295C105.612 115.418 105.911 115.329 106.133 115.171C106.358 115.01 106.482 114.796 106.482 114.57V41.4541C106.482 41.2297 106.356 41.0103 106.135 40.8545C105.914 40.6978 105.607 40.6072 105.295 40.6072Z" fill="#173F5F"/>
<path d="M36.669 72.7891H40.3036V113.725H36.669V72.7891ZM35.4831 115.418H41.4918C41.8088 115.418 42.1079 115.329 42.3299 115.171C42.5554 115.01 42.6789 114.796 42.6789 114.57V71.9431C42.6789 71.7186 42.553 71.4993 42.3323 71.3435C42.1115 71.1868 41.804 71.0962 41.4918 71.0962H35.4831C35.1709 71.0962 34.8659 71.1842 34.6451 71.3435C34.4219 71.4993 34.2949 71.7186 34.2949 71.9431V114.57C34.2949 114.793 34.4219 115.014 34.6451 115.171C34.8659 115.329 35.1709 115.418 35.4831 115.418Z" fill="#173F5F"/>
<path d="M48.8467 72.7874H52.4909V97.552H52.492L52.4932 113.725H48.8467V72.7874ZM47.6609 115.418H53.6803C53.9972 115.418 54.2939 115.329 54.5195 115.171C54.7426 115.01 54.8685 114.796 54.8685 114.57V71.9431C54.8685 71.7186 54.7403 71.4993 54.5195 71.3435C54.2987 71.1868 53.9924 71.0962 53.6803 71.0962H47.6609C47.3499 71.0962 47.0448 71.1842 46.8228 71.3435C46.6008 71.4993 46.4727 71.7186 46.4727 71.9431V114.57C46.4727 114.793 46.6008 115.014 46.8228 115.171C47.0448 115.329 47.3499 115.418 47.6609 115.418Z" fill="#173F5F"/>
<path d="M24.4963 72.7891H28.1334L28.1346 97.552H28.1369V113.723H24.4963V72.7891ZM23.3105 115.418H29.3239C29.6361 115.418 29.9436 115.326 30.1632 115.171C30.3852 115.011 30.5122 114.793 30.5122 114.57V71.9431C30.5122 71.7186 30.3852 71.5018 30.1632 71.3435C29.9436 71.1868 29.6361 71.0945 29.3239 71.0945H23.3105C22.9959 71.0945 22.6909 71.1868 22.4701 71.3435C22.2493 71.4993 22.1211 71.7186 22.1211 71.9431V114.57C22.1211 114.793 22.2493 115.011 22.4701 115.171C22.6909 115.329 22.9959 115.418 23.3105 115.418Z" fill="#173F5F"/>
<path d="M63.6221 123.448H2.37167L2.37286 97.5526H2.37405V65.1327H63.6221V123.448ZM66.1908 123.448H65.995V65.0743H66.1908V63.3805H64.1135V63.383L33.1108 63.4372L0.941302 63.5541C0.0320415 63.6252 0 63.8979 0 64.0885V64.2858C0 64.2875 0.00118818 64.2884 0.00118818 64.2892V124.298C0.00118818 124.52 0.127003 124.738 0.34779 124.895C0.568576 125.054 0.874837 125.145 1.18702 125.145H66.1908V123.448Z" fill="#173F5F"/>
<path d="M12.324 72.7891H15.9647V113.723H12.324V72.7891ZM11.1394 115.418H17.1529C17.4651 115.418 17.7713 115.326 17.9933 115.171C18.2129 115.011 18.3399 114.793 18.3399 114.57V71.9431C18.3399 71.7186 18.2164 71.5018 17.9933 71.3435C17.7713 71.1868 17.4651 71.0945 17.1529 71.0945H11.1394C10.826 71.0945 10.5198 71.1868 10.2978 71.3435C10.0782 71.4993 9.95117 71.7186 9.95117 71.9431V114.57C9.95117 114.793 10.0782 115.011 10.3002 115.171C10.5198 115.329 10.826 115.418 11.1394 115.418Z" fill="#173F5F"/>
<path d="M65.5974 54.3242V51.9045L38.2032 31.9504L38.1878 31.9393C38.1854 31.9376 38.183 31.9377 38.1819 31.936C38.0916 31.8707 37.9872 31.8225 37.878 31.7835C37.8483 31.7725 37.8186 31.7615 37.7878 31.7522C37.6774 31.72 37.5634 31.6971 37.4459 31.6895C37.4423 31.6887 37.44 31.6878 37.4364 31.6878C37.4186 31.687 37.402 31.6895 37.383 31.6895C37.2762 31.6861 37.1705 31.6954 37.0649 31.7132C37.0305 31.7183 36.9972 31.7259 36.964 31.7344C36.8465 31.7623 36.7325 31.7988 36.628 31.8538C36.628 31.8555 36.6257 31.8555 36.6233 31.8563C36.615 31.8597 36.6114 31.8665 36.6043 31.8707C36.5378 31.9089 36.4749 31.9495 36.4203 31.9986L0.242188 63.8164H3.29996L37.1693 34.0261L61.0178 63.8164H63.7539L42.9442 37.822L65.5974 54.3242Z" fill="#173F5F"/>
</svg>
