<svg width="148" height="126" viewBox="0 0 148 126" fill="none" xmlns="http://www.w3.org/2000/svg">
<path d="M1.46289 81.6474V123.492V124.003H146.337V35.7201L124.386 1.01953H66.827L44.8763 35.7201V47.9674H22.9257L1.46289 81.6474Z" fill="white" stroke="black"/>
<path d="M80.5137 72.6013H87.0683V85.6651H80.5137V72.6013ZM79.2129 88.3867H88.3717C88.7177 88.3867 89.0442 88.2438 89.2887 87.988C89.5345 87.7308 89.6725 87.3879 89.6725 87.0245V71.2419C89.6725 70.884 89.5319 70.5329 89.2913 70.2785C89.0468 70.0254 88.7125 69.8825 88.3717 69.8825H79.2129C78.8721 69.8825 78.5364 70.0254 78.2958 70.2785C78.0513 70.5329 77.9121 70.884 77.9121 71.2419V87.0245C77.9121 87.3824 78.0513 87.7363 78.2958 87.988C78.5364 88.2438 78.8721 88.3867 79.2129 88.3867Z" fill="#173F5F"/>
<path d="M59.3314 72.6013H65.8886V85.6651H59.3314V72.6013ZM58.0332 88.3867H67.1894C67.5367 88.3867 67.8619 88.2438 68.109 87.988C68.3549 87.7308 68.4928 87.3879 68.4928 87.0245V71.2419C68.4928 70.884 68.3523 70.5329 68.1116 70.2785C67.8671 70.0254 67.5315 69.8825 67.1894 69.8825H58.0332C57.6872 69.8825 57.3542 70.0254 57.111 70.2785C56.8716 70.5329 56.7324 70.884 56.7324 71.2419V87.0245C56.7324 87.3824 56.8716 87.7363 57.111 87.988C57.3542 88.2438 57.6872 88.3867 58.0332 88.3867Z" fill="#173F5F"/>
<path d="M59.334 46.1214H65.8886V59.1716H59.334V46.1214ZM58.0332 61.8945H67.1894C67.5367 61.8945 67.8619 61.7544 68.109 61.4958C68.3549 61.24 68.4928 60.8971 68.4928 60.5364V44.762C68.4928 44.4054 68.3523 44.053 68.1116 43.7985C67.8671 43.5468 67.5315 43.4012 67.1894 43.4012H58.0332C57.6872 43.4012 57.3542 43.544 57.111 43.7985C56.8716 44.053 56.7324 44.4054 56.7324 44.762V60.5364C56.7324 60.893 56.8716 61.2454 57.111 61.4958C57.3542 61.7517 57.6872 61.8945 58.0332 61.8945Z" fill="#173F5F"/>
<path d="M121.314 72.6013H127.868V85.6678H121.314V72.6013ZM120.016 88.3867H129.174C129.52 88.3867 129.846 88.2466 130.089 87.9894C130.339 87.7322 130.473 87.3906 130.473 87.0259V71.2433C130.473 70.884 130.333 70.5329 130.091 70.2812C129.848 70.0281 129.512 69.8838 129.174 69.8838H120.016C119.672 69.8838 119.34 70.0254 119.096 70.2812C118.853 70.5329 118.715 70.884 118.715 71.2433V87.0259C118.715 87.3852 118.853 87.7376 119.096 87.9894C119.34 88.2438 119.672 88.3867 120.016 88.3867Z" fill="#173F5F"/>
<path d="M80.5137 46.1214H87.0683V59.1743H80.5137V46.1214ZM79.2129 61.8945H88.3717C88.7177 61.8945 89.0442 61.7544 89.2887 61.4958C89.5345 61.24 89.6725 60.8971 89.6725 60.5364V44.762C89.6725 44.4054 89.5319 44.053 89.2913 43.7985C89.0468 43.5468 88.7125 43.4012 88.3717 43.4012H79.2129C78.8721 43.4012 78.5364 43.544 78.2958 43.7985C78.0513 44.053 77.9121 44.4054 77.9121 44.762V60.5364C77.9121 60.893 78.0513 61.2454 78.2958 61.4958C78.5364 61.7517 78.8721 61.8945 79.2129 61.8945Z" fill="#173F5F"/>
<path d="M121.314 99.0881H127.868V112.159H121.314V99.0881ZM120.016 114.879H129.174C129.52 114.879 129.846 114.737 130.089 114.482C130.339 114.226 130.473 113.881 130.473 113.519V97.73C130.473 97.3721 130.333 97.021 130.091 96.7652C129.848 96.5134 129.512 96.3678 129.174 96.3678H120.016C119.672 96.3678 119.34 96.5134 119.096 96.7652C118.853 97.021 118.715 97.3721 118.715 97.73V113.519C118.715 113.876 118.853 114.228 119.096 114.482C119.34 114.735 119.672 114.879 120.016 114.879Z" fill="#173F5F"/>
<path d="M80.5137 99.0855H87.0683V112.156H80.5137V99.0855ZM79.2129 114.875H88.3717C88.7177 114.875 89.0442 114.735 89.2887 114.479C89.5345 114.222 89.6725 113.879 89.6725 113.516V97.7261C89.6725 97.3696 89.5319 97.0171 89.2913 96.7626C89.0468 96.5109 88.7125 96.3667 88.3717 96.3667H79.2129C78.8721 96.3667 78.5364 96.5109 78.2958 96.7626C78.0513 97.0171 77.9121 97.3696 77.9121 97.7261V113.516C77.9121 113.873 78.0513 114.226 78.2958 114.479C78.5364 114.732 78.8721 114.875 79.2129 114.875Z" fill="#173F5F"/>
<path d="M59.3314 99.0855H65.8886V112.156H59.3314V99.0855ZM58.0332 114.875H67.1894C67.5367 114.875 67.8619 114.735 68.109 114.479C68.3549 114.222 68.4928 113.879 68.4928 113.516V97.7261C68.4928 97.3696 68.3523 97.0171 68.1116 96.7626C67.8671 96.5109 67.5315 96.3667 67.1894 96.3667H58.0332C57.6872 96.3667 57.3542 96.5109 57.111 96.7626C56.8716 97.0171 56.7324 97.3696 56.7324 97.7261V113.516C56.7324 113.873 56.8716 114.226 57.111 114.479C57.3542 114.732 57.6872 114.875 58.0332 114.875Z" fill="#173F5F"/>
<path d="M2.60155 83.3133H43.6294V122.42H2.60155V83.3133ZM23.3711 49.5013H43.6294V80.589H3.72544L23.3711 49.5013ZM46.2309 37.6636H101.174V122.42H46.2336V81.9525C46.2336 81.9497 46.2309 81.9484 46.2309 81.9457V37.6636ZM67.5442 2.72349H122.062L116.563 11.4259L101.7 34.9406H47.174L67.5442 2.72349ZM124.494 3.81622L145.266 36.1504V122.419H103.779V36.5899L123.387 5.5676L124.494 3.81622ZM1.30078 125.145H44.9328C44.9354 125.145 44.9354 125.143 44.938 125.143H102.47C102.473 125.143 102.475 125.145 102.478 125.145H146.572C146.912 125.145 147.248 124.998 147.489 124.744C147.731 124.491 147.872 124.142 147.872 123.782V35.7408C147.872 35.4673 147.794 35.2046 147.649 34.9787L125.564 0.602013C125.535 0.557106 125.498 0.521706 125.463 0.482246C125.439 0.453667 125.418 0.423744 125.394 0.397888C125.34 0.342102 125.279 0.295822 125.218 0.252274C125.188 0.229141 125.157 0.201927 125.124 0.182877C125.061 0.144768 124.994 0.120285 124.925 0.093071C124.888 0.0794601 124.853 0.0590439 124.812 0.0481567C124.754 0.0318222 124.687 0.0291061 124.624 0.0209427C124.578 0.0155029 124.533 0.000511169 124.484 0.000511169H66.8457C66.4086 0.000511169 66.0002 0.233208 65.7582 0.611511L43.671 35.5503C43.4069 35.968 43.3836 36.5069 43.6125 36.9465C43.6177 36.956 43.6242 36.9628 43.6294 36.9723V46.7769H22.6726C22.2381 46.7769 21.827 47.011 21.5877 47.3893L0.218553 81.2C0.188636 81.2476 0.173024 81.3006 0.15091 81.351C0.140504 81.3687 0.127466 81.3823 0.119661 81.3973C0.114458 81.4095 0.104065 81.4177 0.100162 81.4299C0.0949593 81.4463 0.0975507 81.4626 0.089746 81.4789C0.066332 81.5483 0.0637533 81.6232 0.048144 81.6953C0.036437 81.7688 0.0104138 81.8395 0.00781229 81.9117C0.00521073 81.9253 0 81.9375 0 81.9511C0 81.9525 0 81.9525 0 81.9525V123.784C0 124.14 0.140507 124.491 0.381151 124.746C0.625697 124.999 0.958673 125.145 1.30078 125.145Z" fill="#173F5F"/>
<path d="M27.481 110.896H20.9238V97.832H27.481V110.896ZM28.7844 95.1104H19.623C19.2809 95.1104 18.9479 95.2519 18.7034 95.5064C18.4627 95.7595 18.3223 96.1119 18.3223 96.4712V112.257C18.3223 112.614 18.4627 112.966 18.7034 113.217C18.9479 113.472 19.2809 113.613 19.623 113.613H28.7844C29.1304 113.613 29.4556 113.474 29.6989 113.217C29.9486 112.961 30.0852 112.619 30.0852 112.257V96.4712C30.0852 96.1119 29.946 95.7595 29.7041 95.5064C29.4608 95.2546 29.1252 95.1104 28.7844 95.1104Z" fill="#173F5F"/>
<path d="M121.314 46.1189H127.868V59.1704H121.314V46.1189ZM120.016 61.8906H129.174C129.52 61.8906 129.846 61.7518 130.089 61.4933C130.339 61.2374 130.473 60.8932 130.473 60.5312V44.7608C130.473 44.4015 130.333 44.0477 130.091 43.796C129.848 43.5429 129.512 43.3986 129.174 43.3986H120.016C119.672 43.3986 119.34 43.5429 119.096 43.796C118.853 44.0477 118.715 44.4015 118.715 44.7608V60.5312C118.715 60.8904 118.853 61.2402 119.096 61.4933C119.34 61.7491 119.672 61.8906 120.016 61.8906Z" fill="#173F5F"/>
</svg>
