<svg width="148" height="126" viewBox="0 0 148 126" fill="none" xmlns="http://www.w3.org/2000/svg">
<path d="M2.11914 36.9513V123.328V123.808H146.707V37.4312L114.929 0.960938H32.8373L2.11914 36.9513Z" fill="white" stroke="black"/>
<path d="M70.8475 76.8092H66.0244L63.5839 76.8066V47.7187H66.0244L68.4183 47.7161H70.8475V76.8092ZM72.2598 45.1581H62.1716C61.7973 45.1581 61.4329 45.295 61.1702 45.5343C60.9089 45.7711 60.7578 46.0999 60.7578 46.4391V78.0875C60.7578 78.4254 60.9089 78.7555 61.173 78.9935C61.4329 79.2302 61.7973 79.3672 62.1716 79.3672H72.2598C72.6355 79.3672 72.9914 79.2341 73.2584 78.9935C73.5253 78.7529 73.6736 78.4305 73.6736 78.0875V46.4391C73.6736 46.0999 73.5225 45.7711 73.2584 45.5318C72.9971 45.295 72.6327 45.1581 72.2598 45.1581Z" fill="#173F5F"/>
<path d="M70.8475 114.661H66.0244L63.5811 114.658V87.2197H66.0244L68.4183 87.2172H70.8475V114.661ZM72.2598 84.6591H62.1716C61.7973 84.6591 61.4329 84.7974 61.1702 85.0354C60.9089 85.2721 60.7578 85.6023 60.7578 85.9401V115.939C60.7578 116.276 60.9089 116.606 61.173 116.843C61.4329 117.082 61.7973 117.219 62.1716 117.219H72.2598C72.6355 117.219 72.9914 117.084 73.2584 116.843C73.5253 116.603 73.6736 116.278 73.6736 115.939V85.9401C73.6736 85.6023 73.5225 85.2721 73.2584 85.0328C72.9971 84.7974 72.6327 84.6591 72.2598 84.6591Z" fill="#173F5F"/>
<path d="M3.08581 38.9174H82.2385V122.584H3.08581V38.9174ZM33.5639 2.56239H112.094L111.276 3.50805L82.8543 36.3568H4.31314L33.5639 2.56239ZM115.006 3.34425L145.046 37.4957V122.581H85.0617V37.9551L92.3155 29.5695L115.006 3.34425ZM0.6778 124.77C0.939081 125.006 1.30204 125.145 1.67631 125.145H146.459C146.833 125.145 147.194 125.006 147.457 124.77C147.721 124.53 147.872 124.2 147.872 123.865V37.0504C147.872 36.7587 147.762 36.4784 147.564 36.2506L116.099 0.484238C116.093 0.476555 116.084 0.475258 116.078 0.467583C115.958 0.335777 115.81 0.233414 115.647 0.155357C115.613 0.138718 115.578 0.12719 115.543 0.113113C115.372 0.0465775 115.191 0.000518799 114.996 0.000518799H32.8789C32.4454 0.000518799 32.0372 0.182213 31.766 0.493172L0.300701 36.8495C-0.0326091 37.2334 -0.09334 37.7581 0.141107 38.1996C0.173591 38.2584 0.221608 38.3083 0.262565 38.3621V123.865C0.262565 124.2 0.413694 124.53 0.6778 124.77Z" fill="#173F5F"/>
<path d="M54.7527 76.8092H49.9267L47.4862 76.8066V47.7161L49.9267 47.7187L52.3235 47.7161H54.7527V76.8092ZM56.165 45.1581H46.0725C45.7025 45.1581 45.3381 45.295 45.0754 45.5343C44.8113 45.7711 44.6602 46.0999 44.6602 46.4391V78.0875C44.6602 78.4254 44.8113 78.7555 45.0754 78.9935C45.3381 79.2302 45.7025 79.3672 46.0725 79.3672H56.165C56.5407 79.3672 56.8966 79.2341 57.1635 78.9935C57.4305 78.7529 57.5788 78.4305 57.5788 78.0875V46.4391C57.5788 46.0999 57.4276 45.7711 57.1635 45.5318C56.8994 45.295 56.5379 45.1581 56.165 45.1581Z" fill="#173F5F"/>
<path d="M37.8025 76.8092H30.5487V47.7161H37.8025V76.8092ZM39.2162 45.1581H29.1364C28.7621 45.1581 28.402 45.295 28.1365 45.5318C27.8738 45.7711 27.7227 46.0999 27.7227 46.4391V78.0875C27.7227 78.4305 27.8709 78.7529 28.1365 78.9935C28.4034 79.2341 28.7593 79.3672 29.1364 79.3672H39.2162C39.5919 79.3672 39.9478 79.2341 40.2147 78.9935C40.4802 78.7529 40.6285 78.4305 40.6285 78.0875V46.4391C40.6285 46.0999 40.4774 45.7711 40.2147 45.5318C39.9506 45.295 39.5891 45.1581 39.2162 45.1581Z" fill="#173F5F"/>
<path d="M16.8842 76.8092L14.4522 76.8066V47.7161L16.8842 47.7187L19.2781 47.7161H21.7031L21.7059 76.8092H16.8842ZM23.1196 45.1581H13.0427C12.6684 45.1581 12.304 45.295 12.0413 45.5343C11.78 45.7711 11.6289 46.0999 11.6289 46.4391V78.0875C11.6289 78.4254 11.78 78.7555 12.0427 78.9935C12.304 79.2302 12.6684 79.3672 13.0427 79.3672H23.1196C23.4953 79.3672 23.8484 79.2341 24.1167 78.9935C24.3837 78.7529 24.5291 78.4305 24.5291 78.0875V46.4391C24.5291 46.0999 24.378 45.7711 24.1167 45.5318C23.854 45.295 23.4897 45.1581 23.1196 45.1581Z" fill="#173F5F"/>
<path d="M54.7527 114.661H49.9267L47.4862 114.658V87.2172L49.9267 87.2197L52.3235 87.2172H54.7527V114.661ZM56.165 84.6591H46.0725C45.7025 84.6591 45.3381 84.7974 45.0754 85.0354C44.8113 85.2721 44.6602 85.6023 44.6602 85.9401V115.939C44.6602 116.276 44.8113 116.606 45.0754 116.843C45.3381 117.082 45.7025 117.219 46.0725 117.219H56.165C56.5407 117.219 56.8966 117.084 57.1635 116.843C57.4305 116.603 57.5788 116.278 57.5788 115.939V85.9401C57.5788 85.6023 57.4276 85.2721 57.1635 85.0328C56.8994 84.7974 56.5379 84.6591 56.165 84.6591Z" fill="#173F5F"/>
<path d="M37.8025 114.661H30.5487V87.2172H37.8025V114.661ZM39.2162 84.6591H29.1364C28.7621 84.6591 28.402 84.7974 28.1365 85.0328C27.8738 85.2721 27.7227 85.6023 27.7227 85.9401V115.939C27.7227 116.278 27.8709 116.603 28.1365 116.843C28.4034 117.084 28.7593 117.219 29.1364 117.219H39.2162C39.5919 117.219 39.9478 117.084 40.2147 116.843C40.4802 116.603 40.6285 116.278 40.6285 115.939V85.9401C40.6285 85.6023 40.4774 85.2721 40.2147 85.0328C39.9506 84.7974 39.5891 84.6591 39.2162 84.6591Z" fill="#173F5F"/>
<path d="M16.8842 114.661L14.4522 114.658V87.2172L16.8842 87.2197L19.2781 87.2172H21.7031L21.7059 114.661H16.8842ZM23.1196 84.6591H13.0427C12.6684 84.6591 12.304 84.7974 12.0413 85.0354C11.78 85.2721 11.6289 85.6023 11.6289 85.9401V115.939C11.6289 116.276 11.78 116.606 12.0427 116.843C12.304 117.082 12.6684 117.219 13.0427 117.219H23.1196C23.4953 117.219 23.8484 117.084 24.1167 116.843C24.3837 116.603 24.5291 116.278 24.5291 115.939V85.9401C24.5291 85.6023 24.378 85.2721 24.1167 85.0328C23.854 84.7974 23.4897 84.6591 23.1196 84.6591Z" fill="#173F5F"/>
<path d="M99.3408 87.7086H101.776L104.171 87.706H106.597V114.658H104.171L101.776 114.661L99.3408 114.658V87.7086ZM97.9299 117.219H108.011C108.38 117.219 108.746 117.082 109.008 116.843C109.27 116.606 109.421 116.276 109.421 115.939V86.4289C109.421 86.0898 109.272 85.7635 109.008 85.5242C108.746 85.2849 108.38 85.148 108.011 85.148H97.9299C97.5571 85.148 97.1927 85.2849 96.9286 85.5242C96.6673 85.7609 96.5176 86.0898 96.5176 86.4289V115.939C96.5176 116.276 96.6673 116.606 96.9314 116.843C97.1927 117.082 97.5571 117.219 97.9299 117.219Z" fill="#173F5F"/>
<path d="M119.394 47.719H126.661V77.7871H119.394V47.719ZM117.981 80.3451H124.219L128.073 80.3477C128.443 80.3477 128.808 80.2107 129.072 79.9714C129.334 79.7334 129.486 79.4033 129.486 79.0667V46.4419C129.486 46.1028 129.334 45.7752 129.072 45.5372C128.808 45.2979 128.443 45.1609 128.073 45.1609H117.981C117.608 45.1609 117.246 45.2979 116.982 45.5346C116.719 45.7739 116.568 46.1028 116.568 46.4419V79.0667C116.568 79.4084 116.717 79.7309 116.982 79.9714C117.249 80.2133 117.605 80.3451 117.981 80.3451Z" fill="#173F5F"/>
<path d="M119.394 87.706H126.661V114.658H124.219L121.811 114.661H119.394V87.706ZM117.981 117.219H128.073C128.443 117.219 128.808 117.082 129.072 116.843C129.334 116.606 129.486 116.276 129.486 115.939V86.4289C129.486 86.0898 129.334 85.7635 129.072 85.5242C128.808 85.2849 128.443 85.148 128.073 85.148H117.981C117.608 85.148 117.246 85.2849 116.982 85.5216C116.719 85.7609 116.568 86.0898 116.568 86.4289V115.939C116.568 116.278 116.717 116.603 116.982 116.843C117.249 117.084 117.605 117.219 117.981 117.219Z" fill="#173F5F"/>
<path d="M99.3408 47.719L101.776 47.7215L104.171 47.719H106.595L106.597 77.7871H99.3408V47.719ZM97.9299 80.3477H101.776L104.171 80.3451L108.011 80.3477C108.38 80.3477 108.746 80.2107 109.008 79.9714C109.27 79.7334 109.421 79.4033 109.421 79.0667V46.4419C109.421 46.1028 109.272 45.7752 109.008 45.5372C108.746 45.2979 108.38 45.1609 108.011 45.1609H97.9299C97.5571 45.1609 97.1927 45.2979 96.9286 45.5372C96.6673 45.7739 96.5176 46.1028 96.5176 46.4419V79.0667C96.5176 79.4033 96.6673 79.7334 96.9314 79.9714C97.1927 80.2107 97.5571 80.3477 97.9299 80.3477Z" fill="#173F5F"/>
</svg>
