<svg width="148" height="126" viewBox="0 0 148 126" fill="none" xmlns="http://www.w3.org/2000/svg">
<path d="M1.4707 27.9466V124.007H146.541V91.2591L125.957 64.1875H94.5903V27.9466L73.5158 0.875H21.5649L1.4707 27.9466Z" fill="white" stroke="black"/>
<path d="M39.8774 107.21H34.1438V97.2399H39.8774V107.21ZM41.1843 94.91H32.8369C32.4906 94.91 32.1547 95.0345 31.9116 95.2511C31.6685 95.4665 31.5273 95.7681 31.5273 96.0744V108.375C31.5273 108.681 31.6685 108.983 31.9116 109.199C32.1547 109.414 32.4906 109.539 32.8369 109.539H41.1843C41.5333 109.539 41.8613 109.418 42.1057 109.199C42.3553 108.978 42.4913 108.686 42.4913 108.375V96.0744C42.4913 95.7681 42.3528 95.4665 42.1097 95.2511C41.8666 95.0345 41.5281 94.91 41.1843 94.91Z" fill="#173F5F"/>
<path d="M39.8767 87.3381H34.1406V77.3828H39.8767V87.3381ZM41.1837 75.0528H32.8362C32.4899 75.0528 32.154 75.1774 31.9109 75.394C31.6678 75.6094 31.5293 75.9121 31.5293 76.2172V88.5036C31.5293 88.8145 31.6626 89.1056 31.9109 89.3268C32.1566 89.5457 32.486 89.668 32.8362 89.668H41.1837C41.5326 89.668 41.8607 89.5457 42.109 89.3245C42.3547 89.1056 42.4906 88.8145 42.4906 88.5036V76.2172C42.4906 75.9063 42.3547 75.6152 42.109 75.394C41.8633 75.1751 41.5326 75.0528 41.1837 75.0528Z" fill="#173F5F"/>
<path d="M21.1797 107.21H15.4082V97.2399H21.1797V107.21ZM22.4892 94.91H14.1013C13.7562 94.91 13.4203 95.0345 13.1785 95.2511C12.9328 95.4665 12.793 95.7681 12.793 96.0744V108.375C12.793 108.681 12.9328 108.983 13.1785 109.199C13.4203 109.414 13.7562 109.539 14.1013 109.539H22.4892C22.8303 109.539 23.1688 109.414 23.4119 109.199C23.6537 108.983 23.7962 108.681 23.7962 108.375V96.0744C23.7962 95.7681 23.6537 95.4665 23.4119 95.2511C23.1688 95.0345 22.8303 94.91 22.4892 94.91Z" fill="#173F5F"/>
<path d="M39.8767 66.6986H34.1406V56.7688H39.8767V66.6986ZM41.1837 54.4401H32.8362C32.4899 54.4401 32.154 54.5647 31.9109 54.7801C31.6678 54.999 31.5293 55.2982 31.5293 55.6045V67.863C31.5293 68.1739 31.6626 68.4661 31.9109 68.6874C32.1566 68.9063 32.486 69.0273 32.8362 69.0273H41.1837C41.5326 69.0273 41.8607 68.9063 42.109 68.685C42.3547 68.4661 42.4906 68.1739 42.4906 67.863V55.6045C42.4906 55.2936 42.3547 55.0013 42.109 54.7824C41.8633 54.5612 41.5326 54.4401 41.1837 54.4401Z" fill="#173F5F"/>
<path d="M15.4056 56.7688H21.1823V66.6986H15.4056V56.7688ZM14.1012 69.0273H22.4892C22.8356 69.0273 23.1662 68.9063 23.4119 68.685C23.6602 68.4661 23.7935 68.1739 23.7935 67.863V55.6045C23.7935 55.2936 23.6602 55.0013 23.4119 54.7824C23.1662 54.5612 22.8356 54.4401 22.4892 54.4401H14.1012C13.7562 54.4401 13.4203 54.5647 13.1759 54.7824C12.9328 54.999 12.793 55.2982 12.793 55.6045V67.863C12.793 68.1692 12.9328 68.4685 13.1759 68.6874C13.4203 68.9039 13.7562 69.0273 14.1012 69.0273Z" fill="#173F5F"/>
<path d="M15.4056 77.3828H21.1823V87.3381H15.4056V77.3828ZM14.1012 89.668H22.4892C22.8356 89.668 23.1662 89.5457 23.4119 89.3245C23.6602 89.1056 23.7935 88.8145 23.7935 88.5036V76.2172C23.7935 75.9063 23.6602 75.6152 23.4119 75.394C23.1662 75.1751 22.8356 75.0528 22.4892 75.0528H14.1012C13.7562 75.0528 13.4203 75.1774 13.1759 75.394C12.9328 75.6094 12.793 75.9121 12.793 76.2172V88.5036C12.793 88.8087 12.9328 89.1079 13.1759 89.3268C13.4203 89.5434 13.7562 89.668 14.1012 89.668Z" fill="#173F5F"/>
<path d="M15.4056 36.1261H21.1823V46.0814H15.4056V36.1261ZM14.1012 48.4102H22.4892C22.8356 48.4102 23.1662 48.2891 23.4119 48.0702C23.6602 47.8489 23.7935 47.5578 23.7935 47.2458V34.9617C23.7935 34.6497 23.6602 34.3586 23.4119 34.1397C23.1662 33.9184 22.8356 33.7962 22.4892 33.7962H14.1012C13.7562 33.7962 13.4203 33.9208 13.1759 34.1397C12.9328 34.3562 12.793 34.6555 12.793 34.9617V47.2458C12.793 47.5532 12.9328 47.8513 13.1759 48.0702C13.4203 48.2867 13.7562 48.4102 14.1012 48.4102Z" fill="#173F5F"/>
<path d="M71.4498 36.1237H77.2148V46.0814H71.4498V36.1237ZM70.1429 48.4102H78.5217C78.8681 48.4102 79.1974 48.2879 79.4444 48.069C79.6901 47.8489 79.8287 47.5567 79.8287 47.2458V34.9594C79.8287 34.6497 79.6901 34.3562 79.4444 34.1373C79.1974 33.9173 78.8681 33.795 78.5217 33.795H70.1429C69.7978 33.795 69.4606 33.9196 69.2176 34.1373C68.9758 34.3539 68.8359 34.6543 68.8359 34.9594V47.2458C68.8359 47.5567 68.9693 47.8489 69.2189 48.069C69.4659 48.2879 69.7939 48.4102 70.1429 48.4102Z" fill="#173F5F"/>
<path d="M39.8767 46.0814H34.1406V36.1261H39.8767V46.0814ZM41.1837 33.7962H32.8362C32.4899 33.7962 32.154 33.9208 31.9109 34.1373C31.6678 34.3562 31.5293 34.6555 31.5293 34.9617V47.2458C31.5293 47.5578 31.6626 47.8489 31.9109 48.0702C32.1566 48.2891 32.486 48.4102 32.8362 48.4102H41.1837C41.5326 48.4102 41.8607 48.2891 42.109 48.0702C42.3547 47.8489 42.4906 47.5578 42.4906 47.2458V34.9617C42.4906 34.6497 42.3547 34.3586 42.109 34.1397C41.8633 33.9184 41.5326 33.7962 41.1837 33.7962Z" fill="#173F5F"/>
<path d="M86.2773 99.5898H92.0148V109.546H86.2773V99.5898ZM84.9703 111.875H93.323C93.6693 111.875 93.9987 111.755 94.247 111.535C94.4927 111.315 94.63 111.022 94.63 110.712V98.4266C94.63 98.118 94.4901 97.8199 94.247 97.6034C94.0013 97.3856 93.668 97.261 93.323 97.261H84.9703C84.6279 97.261 84.2907 97.3856 84.0463 97.6034C83.8059 97.8188 83.6621 98.118 83.6621 98.4266V110.712C83.6621 111.017 83.8059 111.32 84.0463 111.535C84.2907 111.753 84.6279 111.875 84.9703 111.875Z" fill="#173F5F"/>
<path d="M123.587 99.5886H129.349L129.351 109.545H123.587V99.5886ZM121.357 97.6022C121.114 97.8187 120.973 98.1168 120.973 98.4254V110.709C120.973 111.017 121.114 111.318 121.357 111.534C121.6 111.752 121.935 111.875 122.28 111.875H130.66C131.01 111.875 131.337 111.755 131.584 111.534C131.832 111.313 131.967 111.021 131.967 110.709V98.4254C131.967 98.1168 131.827 97.8187 131.584 97.6022C131.339 97.3833 131.003 97.261 130.66 97.261H122.28C121.935 97.261 121.6 97.3833 121.357 97.6022Z" fill="#173F5F"/>
<path d="M67.5409 99.5898H73.3137V109.546H67.5409V99.5898ZM66.234 111.875H74.622C74.9735 111.875 75.2989 111.755 75.546 111.535C75.793 111.315 75.9289 111.022 75.9289 110.712V98.4266C75.9289 98.118 75.7903 97.8199 75.546 97.6034C75.3042 97.3856 74.967 97.261 74.622 97.261H66.234C65.8916 97.261 65.5544 97.3856 65.31 97.6034C65.0695 97.8188 64.9258 98.118 64.9258 98.4266V110.712C64.9258 111.017 65.0695 111.32 65.31 111.535C65.5544 111.753 65.8916 111.875 66.234 111.875Z" fill="#173F5F"/>
<path d="M145.255 122.816H107.54V92.1114L126.367 66.7247L145.255 91.7528V122.816ZM105.477 90.6687H55.8768L61.3633 83.2808L72.3377 68.505L74.3543 65.7886H78.5117C78.5143 65.7886 78.5169 65.7897 78.5209 65.7897H94.4289C94.4315 65.7897 94.4341 65.7886 94.438 65.7886H123.925L105.477 90.6687ZM104.925 122.816H55.4024V92.9987H104.925V122.816ZM53.3361 27.2014H3.73893L22.2139 2.32932H71.7861L64.6647 11.9319L53.3361 27.2014ZM52.7871 91.0309L52.778 91.8215C52.778 91.8355 52.7871 91.8494 52.7871 91.8645V122.813H2.7718V29.5313H52.7859V90.954C52.7859 90.9563 52.7871 90.9575 52.7871 90.9598V91.0309ZM77.2113 56.7682V63.461H73.6538C73.2173 63.461 72.8056 63.6566 72.5625 63.9814L71.4489 65.4835V56.7682H77.2113ZM74.2288 3.26434L93.1193 28.2854V63.461H79.8278V55.6038C79.8278 55.2964 79.6866 54.996 79.4435 54.7794C79.1991 54.5652 78.862 54.4406 78.5209 54.4406H70.142C69.797 54.4406 69.4598 54.5652 69.2167 54.7794C68.9749 54.996 68.8351 55.2964 68.8351 55.6038V67.8623C68.8351 68.1348 68.9383 68.3932 69.1317 68.6016L55.4024 87.0837V28.6417L74.2288 3.26434ZM127.44 63.9745C127.416 63.943 127.383 63.9186 127.356 63.8895C127.325 63.8569 127.296 63.8231 127.263 63.794C127.214 63.7509 127.159 63.716 127.104 63.681C127.067 63.6589 127.034 63.6345 126.997 63.6158C126.935 63.5844 126.868 63.5623 126.801 63.5401C126.763 63.5273 126.726 63.511 126.687 63.5017C126.615 63.4843 126.538 63.4796 126.462 63.4738C126.427 63.4715 126.393 63.461 126.356 63.461H95.7358V27.9315C95.7358 27.6998 95.6588 27.4727 95.5137 27.2806L75.3018 0.515221C75.2783 0.484947 75.247 0.461662 75.2208 0.432556C75.1908 0.398788 75.1594 0.363869 75.1241 0.332436C75.0731 0.289352 75.0169 0.252121 74.9594 0.217194C74.9281 0.196236 74.898 0.17411 74.864 0.156639C74.7895 0.119385 74.7111 0.0914383 74.6301 0.0669861C74.6053 0.0599976 74.583 0.0483551 74.5569 0.0425339C74.4458 0.0157547 74.3308 -0.000587463 74.2118 0.000579834C74.2079 0.000579834 74.2053 0.00177002 74.2014 0.00177002H21.5133C21.0755 0.00177002 20.6626 0.19619 20.4221 0.522209L0.218035 27.723C-0.0485806 28.0782 -0.072103 28.5416 0.155305 28.9165C0.156612 28.9177 0.156614 28.9177 0.157921 28.9189V123.98C0.157921 124.286 0.296449 124.586 0.542154 124.802C0.785245 125.021 1.12114 125.145 1.46486 125.145H54.0967C54.1006 125.145 54.1033 125.143 54.1059 125.143H106.232C106.235 125.143 106.236 125.142 106.238 125.142H146.564C146.912 125.142 147.24 125.022 147.487 124.803C147.735 124.583 147.872 124.291 147.872 123.98V91.3988C147.872 91.1659 147.793 90.9424 147.646 90.7491L127.44 63.9745Z" fill="#173F5F"/>
</svg>
