<svg width="148" height="126" viewBox="0 0 148 126" fill="none" xmlns="http://www.w3.org/2000/svg">
<path d="M146.726 123.81H1.88086V60.569L9.40528 47.2081H65.3682L72.8926 59.6783H74.3034V14.2514L82.2981 0.890625H138.261L146.726 14.2514V123.81Z" fill="white" stroke="black"/>
<path d="M115.405 82.8083H106.701V71.3809H115.405V82.8083ZM116.659 69.0045H105.447C105.109 69.0045 104.795 69.1304 104.557 69.3537C104.319 69.5746 104.193 69.8786 104.193 70.1933V83.9971C104.193 84.3083 104.319 84.6135 104.557 84.8368C104.795 85.0577 105.109 85.1836 105.447 85.1836H116.659C116.997 85.1836 117.311 85.06 117.549 84.8368C117.787 84.6111 117.913 84.313 117.913 83.9971V70.1933C117.913 69.8786 117.787 69.5746 117.549 69.3537C117.311 69.1304 116.997 69.0045 116.659 69.0045Z" fill="#173F5F"/>
<path d="M131.069 71.8169L139.772 71.8193V83.2407H131.069V71.8169ZM128.937 69.7908C128.698 70.0117 128.561 70.317 128.561 70.6329V84.4296C128.561 84.7419 128.698 85.0483 128.937 85.2692C129.163 85.4901 129.489 85.6172 129.815 85.6172H141.026C141.352 85.6172 141.678 85.4901 141.916 85.2692C142.142 85.0483 142.28 84.7419 142.28 84.4296V70.6329C142.28 70.317 142.142 70.0117 141.916 69.7908C141.678 69.5699 141.352 69.4429 141.026 69.4429H129.815C129.489 69.4429 129.163 69.5699 128.937 69.7908Z" fill="#173F5F"/>
<path d="M106.701 25.3896H115.405V36.8146H106.701V25.3896ZM105.447 39.1875H116.659C116.997 39.1875 117.311 39.0651 117.549 38.8407C117.787 38.615 117.913 38.3181 117.913 38.001V24.202C117.913 23.8896 117.775 23.5856 117.549 23.3623C117.311 23.1426 116.997 23.0155 116.659 23.0155H105.447C105.109 23.0155 104.795 23.1426 104.557 23.3623C104.319 23.5832 104.193 23.8896 104.193 24.202V38.001C104.193 38.3134 104.319 38.6198 104.557 38.8407C104.795 39.0616 105.109 39.1875 105.447 39.1875Z" fill="#173F5F"/>
<path d="M131.069 106.717V95.2935H139.772V106.717H131.069ZM141.026 92.9183H129.815C129.489 92.9183 129.163 93.0453 128.937 93.2662C128.698 93.4871 128.561 93.7936 128.561 94.1059V107.906C128.561 108.217 128.698 108.525 128.937 108.746C129.163 108.967 129.489 109.094 129.815 109.094H141.026C141.352 109.094 141.678 108.967 141.916 108.746C142.142 108.523 142.28 108.217 142.28 107.906V94.1059C142.28 93.7936 142.142 93.4871 141.916 93.2662C141.678 93.0453 141.352 92.9183 141.026 92.9183Z" fill="#173F5F"/>
<path d="M129.463 47.9444H138.179V59.3658H129.463V47.9444ZM128.209 61.7422H139.433C139.759 61.7422 140.085 61.6151 140.323 61.3942C140.549 61.1734 140.687 60.8669 140.687 60.5546V46.7579C140.687 46.442 140.549 46.1368 140.323 45.9159C140.085 45.695 139.759 45.5679 139.433 45.5679H128.209C127.883 45.5679 127.557 45.695 127.331 45.9159C127.093 46.1368 126.955 46.442 126.955 46.7579V60.5546C126.955 60.8669 127.093 61.1734 127.331 61.3942C127.557 61.6151 127.883 61.7422 128.209 61.7422Z" fill="#173F5F"/>
<path d="M129.463 25.3896H138.179V36.8111H129.463V25.3896ZM128.209 39.1875H139.433C139.759 39.1875 140.085 39.0604 140.323 38.8395C140.549 38.6186 140.687 38.3134 140.687 37.9999V24.2032C140.687 23.8897 140.549 23.5845 140.323 23.3636C140.085 23.1403 139.759 23.0132 139.433 23.0132H128.209C127.883 23.0132 127.557 23.1403 127.331 23.3612C127.093 23.5845 126.955 23.8897 126.955 24.2032V37.9999C126.955 38.3134 127.093 38.6186 127.331 38.8395C127.557 39.0604 127.883 39.1875 128.209 39.1875Z" fill="#173F5F"/>
<path d="M91.4888 59.8005H82.7855V48.3779H91.4888V59.8005ZM92.7428 46.0026H81.5314C81.2054 46.0026 80.8793 46.1297 80.6411 46.3494C80.4153 46.5715 80.2773 46.8779 80.2773 47.1915V60.9893C80.2773 61.3005 80.4153 61.6069 80.6411 61.829C80.8793 62.0499 81.2054 62.1758 81.5314 62.1758H92.7428C93.0689 62.1758 93.395 62.0499 93.6207 61.829C93.859 61.6069 93.9969 61.3005 93.9969 60.9893V47.1915C93.9969 46.8779 93.859 46.5715 93.6207 46.3518C93.395 46.1297 93.0689 46.0026 92.7428 46.0026Z" fill="#173F5F"/>
<path d="M145.363 122.769H122.59V15.5573H145.363V122.769ZM115.215 2.37815H137.588L144.41 13.1832H122.05L115.215 2.37815ZM120.081 122.769H100.543V14.6963L108.331 2.37815H112.294L120.081 14.6963V122.769ZM76.2014 13.1832L83.0361 2.37815H105.409L98.5741 13.1832H76.2014ZM98.0347 122.769H75.2484V15.5573H98.0347V122.769ZM147.872 14.3697C147.872 14.3661 147.872 14.3625 147.872 14.3589C147.872 14.2235 147.834 14.0917 147.796 13.9658C147.784 13.9326 147.759 13.9006 147.746 13.8673C147.734 13.8317 147.721 13.7936 147.696 13.7592L139.381 0.580063C139.156 0.222588 138.742 0.000518799 138.303 0.000518799H82.3213C81.8823 0.000518799 81.4685 0.222588 81.2428 0.580063L72.9157 13.7592C72.8906 13.7936 72.8782 13.8305 72.8656 13.8661C72.8531 13.8981 72.828 13.9302 72.8154 13.9647C72.7653 14.0929 72.7402 14.2271 72.7402 14.3637V123.957C72.7402 124.27 72.8656 124.577 73.1038 124.798C73.3421 125.019 73.6557 125.145 73.9943 125.145H146.617C146.768 125.145 146.906 125.11 147.031 125.066C147.169 125.11 147.307 125.145 147.445 125.145H147.859L147.872 14.3697Z" fill="#173F5F"/>
<path d="M91.4888 36.8111H82.7855V25.3896H91.4888V36.8111ZM92.7428 23.0132H81.5314C81.2054 23.0132 80.8793 23.1415 80.6411 23.3612C80.4153 23.5833 80.2773 23.8885 80.2773 24.2008V37.9999C80.2773 38.3122 80.4153 38.6186 80.6411 38.8395C80.8793 39.0616 81.2054 39.1875 81.5314 39.1875H92.7428C93.0689 39.1875 93.395 39.0616 93.6207 38.8395C93.859 38.6174 93.9969 38.3122 93.9969 37.9999V24.2008C93.9969 23.8885 93.859 23.5833 93.6207 23.3612C93.395 23.1415 93.0689 23.0132 92.7428 23.0132Z" fill="#173F5F"/>
<path d="M91.4888 105.78H82.7855V94.3595L91.4888 94.3619V105.78ZM92.7428 91.9855H81.5314C81.2054 91.9855 80.8793 92.1114 80.6411 92.3335C80.4153 92.5568 80.2773 92.8619 80.2773 93.1743V106.97C80.2773 107.282 80.4153 107.587 80.6411 107.808C80.8793 108.029 81.2054 108.156 81.5314 108.156H92.7428C93.0689 108.156 93.395 108.029 93.6207 107.808C93.859 107.587 93.9969 107.282 93.9969 106.97V93.1743C93.9969 92.8619 93.859 92.5567 93.6207 92.3346C93.395 92.1114 93.0689 91.9855 92.7428 91.9855Z" fill="#173F5F"/>
<path d="M106.701 94.3619H115.405V105.782H106.701V94.3619ZM105.447 108.156H116.659C116.997 108.156 117.311 108.033 117.549 107.808C117.787 107.583 117.913 107.287 117.913 106.97V93.1743C117.913 92.8619 117.787 92.5568 117.549 92.3335C117.311 92.1114 116.997 91.9879 116.659 91.9879H105.447C105.109 91.9879 104.783 92.1114 104.557 92.3335C104.319 92.5544 104.193 92.8619 104.193 93.1743V106.97C104.193 107.282 104.319 107.587 104.557 107.808C104.795 108.029 105.109 108.156 105.447 108.156Z" fill="#173F5F"/>
<path d="M91.4762 82.8044H82.7855V71.3783H91.4762V82.8044ZM92.7428 69.003H81.5314C81.2054 69.003 80.8793 69.1289 80.6411 69.3498C80.4153 69.5719 80.2773 69.8771 80.2773 70.1895V83.9933C80.2773 84.3044 80.4153 84.612 80.6411 84.8329C80.8793 85.0526 81.2054 85.1797 81.5314 85.1797H92.7428C93.0689 85.1797 93.395 85.0526 93.6207 84.8329C93.859 84.612 93.9969 84.3044 93.9969 83.9933V70.1895C93.9969 69.8771 93.859 69.5719 93.6207 69.3498C93.395 69.1289 93.0689 69.003 92.7428 69.003Z" fill="#173F5F"/>
<path d="M106.701 48.3767H115.405V59.8005H106.701V48.3767ZM105.447 62.1758H116.659C116.997 62.1758 117.311 62.0511 117.549 61.829C117.787 61.6045 117.913 61.3064 117.913 60.9893V47.1903C117.913 46.8791 117.775 46.5715 117.549 46.3506C117.311 46.1309 116.997 46.0038 116.659 46.0038H105.447C105.109 46.0038 104.795 46.1309 104.557 46.3506C104.319 46.5715 104.193 46.8791 104.193 47.1903V60.9893C104.193 61.3017 104.319 61.6057 104.557 61.829C104.795 62.0499 105.109 62.1758 105.447 62.1758Z" fill="#173F5F"/>
<path d="M42.671 105.898H33.9602V94.474H42.671V105.898ZM43.925 92.1011H32.7074C32.3763 92.1011 32.0539 92.2282 31.8207 92.4479C31.5862 92.6688 31.4521 92.9764 31.4521 93.2876V107.087C31.4521 107.399 31.5887 107.703 31.8207 107.926C32.0539 108.147 32.3763 108.273 32.7074 108.273H43.925C44.2599 108.273 44.5734 108.148 44.8117 107.926C45.0487 107.702 45.1791 107.404 45.1791 107.087V93.2876C45.1791 92.9764 45.0437 92.6688 44.8117 92.4479C44.5784 92.2282 44.2549 92.1011 43.925 92.1011ZM10.0501 71.4875H18.747V82.9089H10.0501V71.4875ZM8.79478 85.2853H20.0011C20.3309 85.2853 20.6545 85.1595 20.889 84.9374C21.121 84.7153 21.2551 84.41 21.2551 84.0977V70.2986C21.2551 69.9863 21.121 69.6811 20.889 69.459C20.6545 69.2393 20.3309 69.111 20.0011 69.111H8.79478C8.46371 69.111 8.14137 69.2393 7.90811 69.459C7.6736 69.6811 7.53948 69.9863 7.53948 70.2986V84.0977C7.53948 84.41 7.6736 84.7177 7.90811 84.9374C8.14137 85.1595 8.46371 85.2853 8.79478 85.2853ZM72.6282 122.769H49.853V61.6503H72.6282V122.769ZM42.4816 48.47H64.8567L71.6751 59.2762H49.3087L42.4816 48.47ZM47.3436 122.769H27.8052V60.7905L35.5905 48.47H39.5595L47.3436 60.7893V122.769ZM3.46498 59.2762L10.2946 48.47H32.6698L25.8413 59.2762H3.46498ZM25.2958 122.769H2.50937V61.6503H25.2958V122.769ZM75.1363 60.452C75.1363 60.3167 75.0987 60.1848 75.0611 60.0589C75.0486 60.0257 75.0235 59.9936 75.0109 59.9604C74.9984 59.9247 74.9858 59.8867 74.9607 59.8523L66.645 46.6732C66.4193 46.3157 66.008 46.0948 65.5666 46.0948H9.5836C9.14342 46.0948 8.7321 46.3157 8.50637 46.6732L0.179293 59.8523C0.15672 59.8867 0.147985 59.9247 0.130428 59.9591C0.114125 59.9912 0.0977783 60.0245 0.0852376 60.0577C0.0350748 60.186 0.00125407 60.3202 0 60.4567V123.957C0 124.27 0.134146 124.577 0.367403 124.798C0.601915 125.019 0.92422 125.145 1.25529 125.145H73.8822C74.0327 125.145 74.1707 125.11 74.2961 125.066C74.434 125.11 74.5719 125.145 74.7099 125.145H75.1238V114.06H75.1363V60.4627C75.1363 60.4592 75.1363 60.4556 75.1363 60.452ZM18.747 105.898H10.0501L10.0476 94.4752H18.747V105.898ZM20.0011 92.1H8.796C8.46493 92.1 8.14009 92.227 7.90934 92.4468C7.67357 92.6688 7.54071 92.9752 7.54071 93.2888V107.087C7.54071 107.398 7.67357 107.704 7.90934 107.926C8.14009 108.147 8.46493 108.273 8.796 108.273H20.0011C20.3309 108.273 20.6545 108.147 20.889 107.926C21.121 107.704 21.2551 107.398 21.2551 107.087V93.2888C21.2551 92.9752 21.121 92.6688 20.889 92.4491C20.6545 92.227 20.3309 92.1 20.0011 92.1ZM56.729 71.4875H65.4424L65.4448 82.9089H56.729V71.4875ZM55.475 85.2853H66.6977C67.0262 85.2853 67.3497 85.1583 67.583 84.9374C67.8163 84.7165 67.9505 84.4113 67.9505 84.0989V70.301C67.9505 69.9875 67.8163 69.6823 67.583 69.4614C67.3497 69.2381 67.0262 69.111 66.6977 69.111H55.475C55.1464 69.111 54.8242 69.2381 54.5897 69.459C54.3564 69.6823 54.2223 69.9875 54.2223 70.301V84.0989C54.2223 84.4113 54.3564 84.7165 54.5897 84.9374C54.8242 85.1583 55.1464 85.2853 55.475 85.2853ZM56.729 94.0405H65.4424L65.4448 105.462H56.729V94.0405ZM55.475 107.838H66.6977C67.0262 107.838 67.3497 107.711 67.583 107.49C67.8163 107.27 67.9505 106.963 67.9505 106.651V92.8541C67.9505 92.5382 67.8163 92.233 67.583 92.0121C67.3497 91.7912 67.0262 91.6641 66.6977 91.6641H55.475C55.1464 91.6641 54.8242 91.7912 54.5897 92.0121C54.3564 92.233 54.2223 92.5382 54.2223 92.8541V106.651C54.2223 106.963 54.3564 107.27 54.5897 107.49C54.8242 107.711 55.1464 107.838 55.475 107.838ZM33.9602 71.4851H42.671V82.9113H33.9602V71.4851ZM31.8207 69.459C31.5862 69.6799 31.4521 69.9875 31.4521 70.2986V84.0977C31.4521 84.41 31.5887 84.7165 31.8207 84.9374C32.0539 85.1583 32.3763 85.2842 32.7074 85.2842H43.925C44.2599 85.2842 44.5734 85.163 44.8117 84.9374C45.0487 84.7117 45.1791 84.4148 45.1791 84.0977V70.2986C45.1791 69.9875 45.0437 69.6823 44.8117 69.459C44.5784 69.2393 44.2549 69.1122 43.925 69.1122H32.7074C32.3763 69.1122 32.0539 69.2393 31.8207 69.459Z" fill="#173F5F"/>
</svg>
