<svg width="148" height="126" viewBox="0 0 148 126" fill="none" xmlns="http://www.w3.org/2000/svg">
<path d="M1.14648 67.8724V123.767V124.074H146.314V28.8691L107.348 0.921875L74.1123 28.8691V67.8724L34.3822 39.9252L1.14648 67.8724Z" fill="white" stroke="black"/>
<path d="M94.7591 79.9261H98.0903V87.9332H94.7591V79.9261ZM93.7424 89.5703H99.11C99.382 89.5703 99.6367 89.4859 99.8282 89.3303C100.022 89.1756 100.127 88.9692 100.127 88.7505V79.1088C100.127 78.8901 100.022 78.6838 99.8282 78.529C99.6387 78.3734 99.382 78.289 99.11 78.289H93.7424C93.4724 78.289 93.2086 78.3751 93.0211 78.529C92.8326 78.6822 92.7227 78.8918 92.7227 79.1088V88.7505C92.7227 88.9708 92.8276 89.1756 93.0211 89.3303C93.2136 89.4859 93.4673 89.5703 93.7424 89.5703Z" fill="#173F5F"/>
<path d="M116.47 79.9261H119.791V87.9315H116.47V79.9261ZM115.453 89.5703H120.81C121.083 89.5703 121.338 89.4859 121.531 89.3303C121.722 89.1756 121.827 88.9692 121.827 88.7505V79.1088C121.827 78.8901 121.722 78.6838 121.531 78.529C121.338 78.3734 121.083 78.289 120.81 78.289H115.453C115.184 78.289 114.923 78.3751 114.732 78.529C114.544 78.6822 114.434 78.8918 114.434 79.1088V88.7505C114.434 88.9675 114.544 89.1772 114.732 89.3303C114.923 89.4843 115.184 89.5703 115.453 89.5703Z" fill="#173F5F"/>
<path d="M83.9212 79.9261H87.2443V87.9332H83.9212V79.9261ZM81.8848 88.7505C81.8848 88.9708 81.9897 89.1756 82.1833 89.3303C82.3738 89.4859 82.6295 89.5703 82.9025 89.5703H88.264C88.535 89.5703 88.7897 89.4859 88.9832 89.3303C89.1747 89.1756 89.2807 88.9692 89.2807 88.7505V79.1088C89.2807 78.8901 89.1747 78.6838 88.9832 78.529C88.7917 78.3734 88.535 78.289 88.264 78.289H82.9025C82.6346 78.289 82.3717 78.3751 82.1812 78.529C81.9917 78.6822 81.8848 78.8918 81.8848 79.1088V88.7505Z" fill="#173F5F"/>
<path d="M108.948 87.9315H105.615V79.9261H108.948V87.9315ZM109.966 78.289H104.598C104.328 78.289 104.064 78.3751 103.877 78.529C103.687 78.6822 103.578 78.8918 103.578 79.1088V88.7505C103.578 88.9675 103.687 89.1772 103.877 89.3303C104.064 89.4843 104.328 89.5703 104.598 89.5703H109.966C110.238 89.5703 110.494 89.4859 110.687 89.3303C110.879 89.1756 110.984 88.9692 110.984 88.7505V79.1088C110.984 78.8901 110.879 78.6838 110.687 78.529C110.494 78.3734 110.238 78.289 109.966 78.289Z" fill="#173F5F"/>
<path d="M116.47 65.7952H119.791V73.7089H116.47V65.7952ZM115.453 75.3477H120.81C121.083 75.3477 121.338 75.2616 121.531 75.106C121.722 74.9529 121.827 74.7465 121.827 74.5287V64.9771C121.827 64.7584 121.722 64.552 121.531 64.3973C121.338 64.2425 121.083 64.1573 120.81 64.1573H115.453C115.184 64.1573 114.923 64.2457 114.732 64.3973C114.544 64.5504 114.434 64.7601 114.434 64.9771V74.5287C114.434 74.7433 114.544 74.9545 114.732 75.1077C114.923 75.2592 115.184 75.3477 115.453 75.3477Z" fill="#173F5F"/>
<path d="M94.7591 65.7969H98.0903V73.7105H94.7591V65.7969ZM93.7424 75.3477H99.11C99.382 75.3477 99.6367 75.2633 99.8282 75.1077C100.022 74.9545 100.127 74.7482 100.127 74.5303V64.9787C100.127 64.7601 100.022 64.5537 99.8282 64.3989C99.6387 64.2441 99.382 64.1589 99.11 64.1589H93.7424C93.4724 64.1589 93.2086 64.2474 93.0211 64.3989C92.8326 64.552 92.7227 64.7617 92.7227 64.9787V74.5303C92.7227 74.7482 92.8276 74.9545 93.0211 75.1093C93.2136 75.2633 93.4673 75.3477 93.7424 75.3477Z" fill="#173F5F"/>
<path d="M83.9192 65.7969H87.2443V73.7105H83.9192V65.7969ZM81.8848 74.5303C81.8848 74.7482 81.9897 74.9545 82.1833 75.1093C82.3738 75.2633 82.6295 75.3477 82.9025 75.3477H88.264C88.535 75.3477 88.7897 75.2633 88.9832 75.1077C89.1747 74.9545 89.2807 74.7482 89.2807 74.5303V64.9787C89.2807 64.7601 89.1747 64.5537 88.9832 64.3989C88.7917 64.2441 88.535 64.1589 88.264 64.1589H82.9025C82.6346 64.1589 82.3717 64.2474 82.1812 64.3989C81.9917 64.552 81.8848 64.7617 81.8848 64.9787V74.5303Z" fill="#173F5F"/>
<path d="M108.948 73.7089H105.615V65.7961H108.948V73.7089ZM109.966 64.1573H104.598C104.328 64.1573 104.064 64.2457 103.877 64.3973C103.687 64.5504 103.578 64.7601 103.578 64.9771V74.5287C103.578 74.7433 103.687 74.9545 103.877 75.1077C104.064 75.2592 104.328 75.3477 104.598 75.3477H109.966C110.238 75.3477 110.494 75.2616 110.687 75.106C110.879 74.9529 110.984 74.7465 110.984 74.5287V64.9771C110.984 64.7584 110.879 64.552 110.687 64.3973C110.494 64.2425 110.238 64.1573 109.966 64.1573Z" fill="#173F5F"/>
<path d="M116.47 51.3516H119.791V59.4823H116.47V51.3516ZM115.453 61.1211H120.81C121.083 61.1211 121.338 61.0359 121.531 60.8811C121.722 60.7263 121.827 60.52 121.827 60.3013V50.5335C121.827 50.3156 121.722 50.1092 121.531 49.9536C121.338 49.7988 121.083 49.7145 120.81 49.7145H115.453C115.184 49.7145 114.923 49.8021 114.732 49.9536C114.544 50.1076 114.434 50.3173 114.434 50.5335V60.3013C114.434 60.5183 114.544 60.728 114.732 60.8811C114.923 61.0326 115.184 61.1211 115.453 61.1211Z" fill="#173F5F"/>
<path d="M83.9212 51.3516H87.2443V59.484H83.9212V51.3516ZM82.9025 61.1211H88.264C88.535 61.1211 88.7897 61.0359 88.9832 60.8811C89.1747 60.7263 89.2807 60.52 89.2807 60.3013V50.5335C89.2807 50.3156 89.1747 50.1092 88.9832 49.9536C88.7917 49.7988 88.535 49.7145 88.264 49.7145H82.9025C82.6346 49.7145 82.3717 49.8021 82.1812 49.9536C81.9917 50.1076 81.8848 50.3173 81.8848 50.5335V60.3013C81.8848 60.52 81.9897 60.7263 82.1833 60.8811C82.3738 61.0359 82.6295 61.1211 82.9025 61.1211Z" fill="#173F5F"/>
<path d="M94.7591 51.3516H98.0903V59.484H94.7591V51.3516ZM93.7424 61.1211H99.11C99.382 61.1211 99.6367 61.0359 99.8282 60.8811C100.022 60.7263 100.127 60.52 100.127 60.3013V50.5335C100.127 50.3156 100.022 50.1092 99.8282 49.9536C99.6387 49.7988 99.382 49.7145 99.11 49.7145H93.7424C93.4724 49.7145 93.2086 49.8021 93.0211 49.9536C92.8326 50.1076 92.7227 50.3173 92.7227 50.5335V60.3013C92.7227 60.52 92.8276 60.7263 93.0211 60.8811C93.2136 61.0359 93.4673 61.1211 93.7424 61.1211Z" fill="#173F5F"/>
<path d="M108.948 59.4823H105.615V51.3533H108.948V59.4823ZM109.966 49.7145H104.598C104.328 49.7145 104.064 49.8021 103.877 49.9536C103.687 50.1076 103.578 50.3173 103.578 50.5335V60.3013C103.578 60.5183 103.687 60.728 103.877 60.8811C104.064 61.0326 104.328 61.1211 104.598 61.1211H109.966C110.238 61.1211 110.494 61.0359 110.687 60.8811C110.879 60.7263 110.984 60.52 110.984 60.3013V50.5335C110.984 50.3156 110.879 50.1092 110.687 49.9536C110.494 49.7988 110.238 49.7145 109.966 49.7145Z" fill="#173F5F"/>
<path d="M75.0453 30.0919H129.714V123.507H75.0432L75.0453 30.0919ZM107.078 2.12828L128.677 28.2632L76.1964 28.4532L107.078 2.12828ZM144.568 28.2632H131.122L112.311 5.5008L144.568 28.2632ZM145.832 123.507H131.752V29.9027H145.832V123.507ZM73.3053 124.905C73.4958 125.058 73.7586 125.144 74.0255 125.144H130.73C130.732 125.144 130.733 125.145 130.735 125.145H146.853C147.121 125.145 147.383 125.057 147.573 124.905C147.762 124.751 147.871 124.541 147.871 124.326V29.0821C147.871 29.0813 147.87 29.0805 147.87 29.0789V28.7873C147.87 28.5506 147.745 28.3262 147.524 28.1706L107.889 0.199631C107.857 0.177513 107.818 0.168495 107.785 0.150482C107.748 0.130005 107.71 0.111176 107.67 0.0956192C107.58 0.0587616 107.482 0.0350037 107.379 0.02108C107.353 0.016983 107.329 0.00305939 107.302 0.000602722C107.29 -0.000213623 107.28 0.00553894 107.267 0.0047226C107.127 -0.00100708 106.986 0.011261 106.857 0.0513916C106.852 0.0530243 106.848 0.0563126 106.843 0.0579453C106.736 0.0915222 106.635 0.136566 106.545 0.199631C106.53 0.21109 106.523 0.22583 106.508 0.237297C106.499 0.244667 106.485 0.2463 106.477 0.254494L73.287 28.5474C73.1067 28.6989 73.0078 28.8995 73.0078 29.1092V29.273C73.0078 29.2738 73.0089 29.2754 73.0089 29.277V124.326C73.0089 124.541 73.1168 124.751 73.3053 124.905Z" fill="#173F5F"/>
<path d="M83.9212 45.2613V36.7088H87.2423L87.2443 45.2613H83.9212ZM88.264 35.0717H82.9025C82.6346 35.0717 82.3738 35.1577 82.1833 35.3117C81.9918 35.4632 81.8828 35.6745 81.8828 35.8907V46.0786C81.8828 46.2957 81.9918 46.507 82.1833 46.6585C82.3738 46.8124 82.6346 46.8984 82.9025 46.8984H88.264C88.535 46.8984 88.7897 46.8141 88.9833 46.6585C89.1748 46.5037 89.2828 46.2989 89.2828 46.0786V35.8907C89.2828 35.6745 89.1727 35.4632 88.9833 35.3117C88.7938 35.1577 88.5309 35.0717 88.264 35.0717Z" fill="#173F5F"/>
<path d="M98.0903 45.2613H94.7611V36.7088H98.0903V45.2613ZM99.11 35.0717H93.7424C93.4724 35.0717 93.2116 35.1577 93.0211 35.3117C92.8326 35.4632 92.7227 35.6745 92.7227 35.8907V46.0786C92.7227 46.2957 92.8326 46.507 93.0211 46.6585C93.2116 46.8124 93.4724 46.8984 93.7424 46.8984H99.11C99.382 46.8984 99.6367 46.8141 99.8282 46.6585C100.022 46.5037 100.129 46.2989 100.129 46.0786V35.8907C100.129 35.6745 100.02 35.4632 99.8282 35.3117C99.6407 35.1577 99.3779 35.0717 99.11 35.0717Z" fill="#173F5F"/>
<path d="M119.791 45.2597H116.47V36.7088H119.791V45.2597ZM120.81 35.0717H115.453C115.184 35.0717 114.923 35.1577 114.732 35.3117C114.544 35.4632 114.434 35.6745 114.434 35.8907V46.0786C114.434 46.2957 114.544 46.507 114.732 46.6585C114.923 46.8124 115.184 46.8984 115.453 46.8984H120.81C121.078 46.8984 121.341 46.8124 121.531 46.6585C121.72 46.5053 121.83 46.2957 121.83 46.0786V35.8907C121.83 35.6745 121.72 35.4632 121.531 35.3117C121.341 35.1577 121.078 35.0717 120.81 35.0717Z" fill="#173F5F"/>
<path d="M108.946 45.2597H105.615V36.7088H108.946V45.2597ZM109.966 35.0717H104.598C104.328 35.0717 104.064 35.1577 103.877 35.3117C103.687 35.4632 103.578 35.6745 103.578 35.8907V46.0786C103.578 46.2957 103.687 46.507 103.877 46.6585C104.067 46.8124 104.328 46.8984 104.598 46.8984H109.966C110.232 46.8984 110.496 46.8124 110.687 46.6585C110.875 46.5053 110.984 46.2957 110.984 46.0786V35.8907C110.984 35.6745 110.875 35.4632 110.687 35.3117C110.496 35.1577 110.232 35.0717 109.966 35.0717Z" fill="#173F5F"/>
<path d="M87.2443 102.158H83.9212V95.4516H87.2443V102.158ZM88.264 93.8145H82.9025C82.6346 93.8145 82.3738 93.9005 82.1833 94.0536C81.9918 94.2051 81.8828 94.4172 81.8828 94.6334V102.977C81.8828 103.192 81.9918 103.404 82.1833 103.557C82.3738 103.708 82.6346 103.797 82.9025 103.797H88.264C88.535 103.797 88.7897 103.71 88.9833 103.557C89.1748 103.402 89.2828 103.196 89.2828 102.977V94.6334C89.2828 94.4172 89.1727 94.2076 88.9833 94.0536C88.7938 93.9005 88.5309 93.8145 88.264 93.8145Z" fill="#173F5F"/>
<path d="M108.946 102.158H105.615V95.4516H108.946V102.158ZM109.966 93.8145H104.598C104.328 93.8145 104.064 93.9005 103.877 94.0536C103.687 94.2051 103.578 94.4172 103.578 94.6334V102.977C103.578 103.192 103.687 103.404 103.877 103.557C104.067 103.708 104.328 103.797 104.598 103.797H109.966C110.232 103.797 110.496 103.708 110.687 103.557C110.875 103.404 110.984 103.192 110.984 102.977V94.6334C110.984 94.4172 110.875 94.2076 110.687 94.0536C110.496 93.9005 110.232 93.8145 109.966 93.8145Z" fill="#173F5F"/>
<path d="M98.0903 102.158H94.7591V95.4516H98.0903V102.158ZM99.11 93.8145H93.7424C93.4724 93.8145 93.2116 93.9005 93.0211 94.0536C92.8326 94.2051 92.7227 94.4172 92.7227 94.6334V102.977C92.7227 103.192 92.8326 103.404 93.0211 103.557C93.2116 103.708 93.4724 103.797 93.7424 103.797H99.11C99.382 103.797 99.6367 103.71 99.8282 103.557C100.022 103.402 100.129 103.196 100.129 102.977V94.6334C100.129 94.4172 100.02 94.2076 99.8282 94.0536C99.6407 93.9005 99.3779 93.8145 99.11 93.8145Z" fill="#173F5F"/>
<path d="M116.47 102.158V95.4532L119.789 95.4516L119.791 102.158H116.47ZM120.81 93.8145H115.453C115.184 93.8145 114.923 93.9005 114.732 94.0536C114.544 94.2051 114.434 94.4172 114.434 94.6334V102.977C114.434 103.192 114.544 103.404 114.732 103.557C114.923 103.708 115.184 103.797 115.453 103.797H120.81C121.078 103.797 121.341 103.708 121.531 103.557C121.72 103.404 121.83 103.192 121.83 102.977V94.6334C121.83 94.4172 121.72 94.2076 121.531 94.0536C121.341 93.9005 121.078 93.8145 120.81 93.8145Z" fill="#173F5F"/>
<path d="M87.2443 116.386H83.9192V108.82H87.2443V116.386ZM88.264 107.183H82.9025C82.6346 107.183 82.3717 107.27 82.1812 107.421C81.9917 107.574 81.8848 107.786 81.8848 108V117.204C81.8848 117.422 81.9897 117.629 82.1833 117.784C82.3738 117.939 82.6295 118.023 82.9025 118.023H88.264C88.535 118.023 88.7897 117.939 88.9832 117.784C89.1747 117.629 89.2807 117.422 89.2807 117.204V108C89.2807 107.782 89.1747 107.576 88.9832 107.423C88.7917 107.267 88.535 107.183 88.264 107.183Z" fill="#173F5F"/>
<path d="M98.0903 116.386H94.7591V108.82H98.0903V116.386ZM99.11 107.183H93.7424C93.4724 107.183 93.2086 107.27 93.0211 107.421C92.8326 107.574 92.7227 107.786 92.7227 108V117.204C92.7227 117.422 92.8276 117.629 93.0211 117.784C93.2136 117.939 93.4673 118.023 93.7424 118.023H99.11C99.382 118.023 99.6367 117.939 99.8282 117.784C100.022 117.629 100.127 117.422 100.127 117.204V108C100.127 107.782 100.022 107.576 99.8282 107.423C99.6387 107.267 99.382 107.183 99.11 107.183Z" fill="#173F5F"/>
<path d="M108.948 116.385H105.615V108.82H108.948V116.385ZM109.966 107.181H104.598C104.328 107.181 104.064 107.27 103.877 107.423C103.687 107.574 103.578 107.786 103.578 108V117.204C103.578 117.421 103.687 117.63 103.877 117.784C104.064 117.936 104.328 118.023 104.598 118.023H109.966C110.238 118.023 110.494 117.939 110.687 117.784C110.879 117.629 110.984 117.422 110.984 117.204V108C110.984 107.782 110.879 107.578 110.687 107.423C110.494 107.267 110.238 107.181 109.966 107.181Z" fill="#173F5F"/>
<path d="M119.791 116.385H116.47V108.82H119.791V116.385ZM120.81 107.181H115.453C115.184 107.181 114.923 107.27 114.732 107.423C114.544 107.574 114.434 107.786 114.434 108V117.204C114.434 117.421 114.544 117.63 114.732 117.784C114.923 117.936 115.184 118.023 115.453 118.023H120.81C121.083 118.023 121.338 117.939 121.531 117.784C121.722 117.629 121.827 117.422 121.827 117.204V108C121.827 107.782 121.722 107.578 121.531 107.423C121.338 107.267 121.083 107.181 120.81 107.181Z" fill="#173F5F"/>
<path d="M72.8251 98.2554V123.507H58.7454V98.2554H56.7069V123.507H2.03631L2.03735 98.2554H0.00195312V124.326C0.00195312 124.541 0.109904 124.751 0.298367 124.905C0.488867 125.058 0.751729 125.144 1.01863 125.144H57.7226C57.7246 125.144 57.7256 125.145 57.7277 125.145H73.8458C74.1138 125.145 74.3756 125.057 74.5661 124.905C74.7556 124.751 74.8646 124.541 74.8646 124.326V98.2554H72.8251Z" fill="#173F5F"/>
<path d="M34.0701 41.3019L55.6689 67.4368H17.1491C17.1379 67.4368 17.1288 67.4417 17.1176 67.4417C17.0198 67.4442 16.925 67.4581 16.8343 67.4827C16.8007 67.4908 16.7712 67.5039 16.7396 67.5154C16.6713 67.54 16.6092 67.5686 16.5491 67.6039C16.5338 67.6129 16.5124 67.617 16.4971 67.6276H3.18857L34.0701 41.3019ZM71.56 67.4376H58.1139L39.3032 44.6752L71.56 67.4376ZM0.00104459 101.668H2.03644L2.03744 69.2663H56.706V101.668H58.7445V69.0764H72.8242V101.668H74.8637V68.2566C74.8637 68.255 74.8627 68.2541 74.8627 68.2525V67.9609C74.8627 67.7242 74.7374 67.5007 74.5163 67.3451L34.881 39.374C34.8494 39.3519 34.8107 39.3429 34.777 39.3241C34.7404 39.3036 34.7027 39.2856 34.6619 39.2692C34.5723 39.2324 34.4745 39.2086 34.3716 39.1947C34.3451 39.1914 34.3227 39.1767 34.2942 39.1751C34.282 39.1742 34.2717 39.1791 34.2595 39.1791C34.1189 39.1734 33.9784 39.1857 33.849 39.225C33.8439 39.2266 33.8398 39.2307 33.8347 39.2316C33.7278 39.266 33.6269 39.311 33.5373 39.374C33.522 39.3847 33.5149 39.4003 33.5006 39.4109C33.4914 39.4183 33.4772 39.4207 33.469 39.4281L0.279153 67.721C0.0988397 67.8725 0 68.0731 0 68.2828V68.4466C0 68.4482 0.00104459 68.4498 0.00104459 68.4507V101.668Z" fill="#173F5F"/>
<path d="M23.4485 78.8363H26.7797V86.8434H23.4485V78.8363ZM22.4318 88.4805H27.7994C28.0714 88.4805 28.3262 88.3961 28.5177 88.2405C28.7112 88.0857 28.8161 87.8794 28.8161 87.6607V78.019C28.8161 77.8003 28.7112 77.594 28.5177 77.4392C28.3282 77.2836 28.0714 77.1992 27.7994 77.1992H22.4318C22.1619 77.1992 21.898 77.2852 21.7106 77.4392C21.5221 77.5923 21.4121 77.802 21.4121 78.019V87.6607C21.4121 87.881 21.517 88.0857 21.7106 88.2405C21.9031 88.3961 22.1568 88.4805 22.4318 88.4805Z" fill="#173F5F"/>
<path d="M45.1595 78.8363H48.4805V86.8417H45.1595V78.8363ZM44.1428 88.4805H49.4992C49.7723 88.4805 50.028 88.3961 50.2205 88.2405C50.411 88.0857 50.5169 87.8794 50.5169 87.6607V78.019C50.5169 77.8003 50.411 77.594 50.2205 77.4392C50.028 77.2836 49.7723 77.1992 49.4992 77.1992H44.1428C43.8739 77.1992 43.6121 77.2852 43.4215 77.4392C43.2331 77.5923 43.123 77.802 43.123 78.019V87.6607C43.123 87.8777 43.2331 88.0874 43.4215 88.2405C43.6121 88.3945 43.8739 88.4805 44.1428 88.4805Z" fill="#173F5F"/>
<path d="M12.6107 78.8363H15.9337V86.8434H12.6107V78.8363ZM10.5742 87.6607C10.5742 87.881 10.6792 88.0857 10.8727 88.2405C11.0632 88.3961 11.3189 88.4805 11.5919 88.4805H16.9535C17.2244 88.4805 17.4791 88.3961 17.6727 88.2405C17.8642 88.0857 17.9701 87.8794 17.9701 87.6607V78.019C17.9701 77.8003 17.8642 77.594 17.6727 77.4392C17.4812 77.2836 17.2244 77.1992 16.9535 77.1992H11.5919C11.324 77.1992 11.0612 77.2852 10.8707 77.4392C10.6812 77.5923 10.5742 77.802 10.5742 78.019V87.6607Z" fill="#173F5F"/>
<path d="M37.6372 86.8417H34.304V78.8363H37.6372V86.8417ZM38.655 77.1992H33.2873C33.0174 77.1992 32.7535 77.2852 32.5661 77.4392C32.3766 77.5923 32.2676 77.802 32.2676 78.019V87.6607C32.2676 87.8777 32.3766 88.0874 32.5661 88.2405C32.7535 88.3945 33.0174 88.4805 33.2873 88.4805H38.655C38.927 88.4805 39.1837 88.3961 39.3762 88.2405C39.5688 88.0857 39.6737 87.8794 39.6737 87.6607V78.019C39.6737 77.8003 39.5688 77.594 39.3762 77.4392C39.1837 77.2836 38.927 77.1992 38.655 77.1992Z" fill="#173F5F"/>
<path d="M15.9338 101.068H12.6107V94.3618H15.9338V101.068ZM16.9535 92.7246H11.592C11.3241 92.7246 11.0633 92.8107 10.8728 92.9638C10.6812 93.1153 10.5723 93.3274 10.5723 93.5436V101.887C10.5723 102.103 10.6812 102.314 10.8728 102.467C11.0633 102.619 11.3241 102.707 11.592 102.707H16.9535C17.2245 102.707 17.4792 102.62 17.6727 102.467C17.8642 102.312 17.9722 102.106 17.9722 101.887V93.5436C17.9722 93.3274 17.8622 93.1178 17.6727 92.9638C17.4832 92.8107 17.2204 92.7246 16.9535 92.7246Z" fill="#173F5F"/>
<path d="M37.6352 101.068H34.304V94.3618H37.6352V101.068ZM38.655 92.7246H33.2873C33.0174 92.7246 32.7535 92.8107 32.5661 92.9638C32.3766 93.1153 32.2676 93.3274 32.2676 93.5436V101.887C32.2676 102.103 32.3766 102.314 32.5661 102.467C32.7566 102.619 33.0174 102.707 33.2873 102.707H38.655C38.9219 102.707 39.1857 102.619 39.3762 102.467C39.5647 102.314 39.6737 102.103 39.6737 101.887V93.5436C39.6737 93.3274 39.5647 93.1178 39.3762 92.9638C39.1857 92.8107 38.9219 92.7246 38.655 92.7246Z" fill="#173F5F"/>
<path d="M26.7797 101.068H23.4485V94.3618H26.7797V101.068ZM27.7995 92.7246H22.4318C22.1619 92.7246 21.9011 92.8107 21.7106 92.9638C21.5221 93.1153 21.4121 93.3274 21.4121 93.5436V101.887C21.4121 102.103 21.5221 102.314 21.7106 102.467C21.9011 102.619 22.1619 102.707 22.4318 102.707H27.7995C28.0714 102.707 28.3262 102.62 28.5177 102.467C28.7112 102.312 28.8182 102.106 28.8182 101.887V93.5436C28.8182 93.3274 28.7092 93.1178 28.5177 92.9638C28.3302 92.8107 28.0674 92.7246 27.7995 92.7246Z" fill="#173F5F"/>
<path d="M45.1595 101.068V94.3634L48.4785 94.3618L48.4805 101.068H45.1595ZM49.4992 92.7246H44.1428C43.8739 92.7246 43.6121 92.8107 43.4215 92.9638C43.2331 93.1153 43.123 93.3274 43.123 93.5436V101.887C43.123 102.103 43.2331 102.314 43.4215 102.467C43.6121 102.619 43.8739 102.707 44.1428 102.707H49.4992C49.7672 102.707 50.03 102.619 50.2205 102.467C50.41 102.314 50.519 102.103 50.519 101.887V93.5436C50.519 93.3274 50.41 93.1178 50.2205 92.9638C50.03 92.8107 49.7672 92.7246 49.4992 92.7246Z" fill="#173F5F"/>
<path d="M15.9337 115.293H12.6086V107.726H15.9337V115.293ZM16.9535 106.089H11.5919C11.324 106.089 11.0612 106.176 10.8707 106.327C10.6812 106.48 10.5742 106.692 10.5742 106.906V116.11C10.5742 116.329 10.6792 116.535 10.8727 116.691C11.0632 116.845 11.3189 116.93 11.5919 116.93H16.9535C17.2244 116.93 17.4791 116.845 17.6727 116.691C17.8642 116.535 17.9701 116.329 17.9701 116.11V106.906C17.9701 106.689 17.8642 106.482 17.6727 106.329C17.4812 106.173 17.2244 106.089 16.9535 106.089Z" fill="#173F5F"/>
<path d="M26.7797 115.293H23.4485V107.726H26.7797V115.293ZM27.7994 106.089H22.4318C22.1619 106.089 21.898 106.176 21.7106 106.327C21.5221 106.48 21.4121 106.692 21.4121 106.906V116.11C21.4121 116.329 21.517 116.535 21.7106 116.691C21.9031 116.845 22.1568 116.93 22.4318 116.93H27.7994C28.0714 116.93 28.3262 116.845 28.5177 116.691C28.7112 116.535 28.8161 116.329 28.8161 116.11V106.906C28.8161 106.689 28.7112 106.482 28.5177 106.329C28.3282 106.173 28.0714 106.089 27.7994 106.089Z" fill="#173F5F"/>
<path d="M37.6372 115.291H34.304V107.726H37.6372V115.291ZM38.655 106.087H33.2873C33.0174 106.087 32.7535 106.176 32.5661 106.329C32.3766 106.48 32.2676 106.692 32.2676 106.906V116.11C32.2676 116.327 32.3766 116.537 32.5661 116.691C32.7535 116.842 33.0174 116.93 33.2873 116.93H38.655C38.927 116.93 39.1837 116.845 39.3762 116.691C39.5688 116.535 39.6737 116.329 39.6737 116.11V106.906C39.6737 106.689 39.5688 106.484 39.3762 106.329C39.1837 106.173 38.927 106.087 38.655 106.087Z" fill="#173F5F"/>
<path d="M48.4805 115.291H45.1595V107.726H48.4805V115.291ZM49.4992 106.087H44.1428C43.8739 106.087 43.6121 106.176 43.4215 106.329C43.2331 106.48 43.123 106.692 43.123 106.906V116.11C43.123 116.327 43.2331 116.537 43.4215 116.691C43.6121 116.842 43.8739 116.93 44.1428 116.93H49.4992C49.7723 116.93 50.028 116.845 50.2205 116.691C50.411 116.535 50.5169 116.329 50.5169 116.11V106.906C50.5169 106.689 50.411 106.484 50.2205 106.329C50.028 106.173 49.7723 106.087 49.4992 106.087Z" fill="#173F5F"/>
</svg>
