<svg width="148" height="126" viewBox="0 0 148 126" fill="none" xmlns="http://www.w3.org/2000/svg">
<path d="M1.61523 56.7864V123.647H145.98V57.2444L114.737 1.375H32.8583L1.61523 56.7864Z" fill="white" stroke="black"/>
<path d="M36.0009 49.6201H27.9725V35.7669C27.9754 33.8888 29.7839 32.3574 31.9889 32.3562C34.2111 32.3574 36.0009 33.8827 36.0038 35.7669L36.0009 49.6201ZM31.9889 29.9126C28.1923 29.915 25.1025 32.5308 25.0996 35.7669V50.8413C25.0996 51.1625 25.2533 51.4788 25.5204 51.7047C25.7891 51.9343 26.1568 52.0625 26.5361 52.0625H37.4373C37.8209 52.0625 38.1829 51.9367 38.453 51.7047C38.7259 51.4763 38.8753 51.1686 38.8753 50.8413V35.7669C38.8681 32.5369 35.7998 29.9126 31.9889 29.9126Z" fill="#173F5F"/>
<path d="M36.0009 91.8765H27.9725V78.0283C27.9754 76.1465 29.7868 74.6114 31.9889 74.6076C34.2111 74.6114 36.0009 76.1402 36.0038 78.0283L36.0009 91.8765ZM31.9889 72.1653C28.1923 72.1714 25.1025 74.7908 25.0996 78.0283V93.0977C25.0996 93.4187 25.2533 93.734 25.5204 93.961C25.7891 94.1867 26.1568 94.3164 26.5361 94.3164H37.4373C37.8209 94.3164 38.1829 94.1895 38.453 93.961C38.7259 93.7288 38.8753 93.421 38.8753 93.0977V78.0283C38.8681 74.7969 35.8027 72.1676 31.9889 72.1653Z" fill="#173F5F"/>
<path d="M18.357 91.8765H10.3328V78.0283C10.3357 76.1465 12.1371 74.6114 14.3507 74.6076C16.5599 74.6114 18.3555 76.1402 18.357 78.0283V91.8765ZM14.3507 72.1676C10.5455 72.1676 7.45991 74.7931 7.45991 78.0283L7.45703 93.0977C7.45703 93.4187 7.61076 93.734 7.88082 93.961C8.14656 94.1867 8.51427 94.3164 8.89637 94.3164H19.7948C20.1784 94.3164 20.5375 94.1895 20.809 93.961C21.0805 93.7288 21.2313 93.421 21.2313 93.0977V78.0283C21.2284 74.7969 18.1573 72.1676 14.3507 72.1676Z" fill="#173F5F"/>
<path d="M144.751 122.682H127.093V108.618C127.085 105.351 124.017 102.684 120.199 102.682C116.372 102.684 113.313 105.354 113.307 108.618V122.682H109.446V108.618C109.44 105.351 106.374 102.684 102.553 102.682C98.7324 102.684 95.6742 105.351 95.667 108.618V122.685H91.7986V108.618C91.7943 105.351 88.7318 102.684 84.9108 102.682C81.0855 102.684 78.0244 105.351 78.0186 108.618V122.682H65.6564V58.9156H144.751V122.682ZM124.221 122.683H116.177V108.618C116.18 106.67 117.995 105.127 120.199 105.122C122.394 105.127 124.218 106.673 124.221 108.618V122.683ZM106.575 122.682H98.5399V108.618C98.5399 106.673 100.36 105.127 102.553 105.122C104.751 105.127 106.573 106.673 106.575 108.618V122.682ZM88.9285 122.683H80.8887V108.618C80.8915 106.673 82.7087 105.127 84.9108 105.122C87.1086 105.127 88.9256 106.673 88.9285 108.618V122.683ZM35.1546 2.44167L114.077 2.44411L144.165 56.472H65.2499L35.1546 2.44167ZM62.7864 122.682H56.5205V108.607C56.5176 105.343 53.4479 102.684 49.6269 102.682C45.8074 102.684 42.7578 105.349 42.7506 108.607V122.682H38.875V108.607C38.8678 105.349 35.8153 102.682 31.9886 102.679C28.1762 102.684 25.0993 105.343 25.0993 108.607V122.682H21.228V108.607C21.2252 105.349 18.1698 102.684 14.3503 102.682C10.5336 102.684 7.46382 105.343 7.45951 108.607V122.682H2.87005V57.245L32.8749 4.06341L48.788 32.6282L62.7864 57.7615V122.682ZM53.6504 122.648H45.6206V108.607C45.6235 106.668 47.432 105.127 49.6269 105.124C51.8262 105.127 53.6461 106.673 53.6504 108.607V122.648ZM36.0035 122.648H27.9722V108.607C27.9751 106.673 29.798 105.127 31.9886 105.124C34.195 105.127 36.0006 106.668 36.0035 108.607V122.648ZM18.3566 122.648H10.3296V108.607C10.3324 106.673 12.1525 105.127 14.3503 105.124C16.5466 105.127 18.3551 106.668 18.3566 108.607V122.648ZM116.285 0.700264C116.045 0.272842 115.542 0.000518799 114.987 0.000518799H32.8864C32.7557 0.000518799 32.6278 0.017601 32.5043 0.0469055C32.4612 0.0566788 32.4209 0.0762253 32.3793 0.0896606C32.3031 0.114082 32.2299 0.139732 32.1595 0.17392C32.1121 0.198349 32.069 0.227661 32.0259 0.255745C31.9685 0.292381 31.9139 0.32901 31.8636 0.371758C31.8219 0.405945 31.7875 0.447472 31.7516 0.486557C31.7257 0.514641 31.6941 0.537834 31.6711 0.568367C31.6553 0.589127 31.6482 0.612328 31.6352 0.634315C31.6209 0.656296 31.6007 0.672165 31.5878 0.694153L0.142173 56.4378L0 56.9665V123.906C0 124.227 0.155093 124.541 0.420839 124.77C0.688021 124.997 1.05724 125.127 1.43646 125.127H79.3675C79.3976 125.128 79.4234 125.142 79.4536 125.142H90.3636C90.3995 125.142 90.4297 125.127 90.4642 125.124H96.9914C97.0288 125.127 97.0632 125.145 97.1035 125.145H108.012C108.046 125.145 108.077 125.13 108.111 125.127H114.657C114.686 125.128 114.713 125.142 114.742 125.142H125.656C125.685 125.142 125.712 125.128 125.741 125.127H146.185C146.567 125.127 146.929 124.999 147.199 124.767C147.472 124.539 147.621 124.229 147.621 123.906V58.3769C147.63 58.366 147.641 58.3588 147.65 58.3478C147.913 57.991 147.946 57.5488 147.733 57.1705L116.285 0.700264Z" fill="#173F5F"/>
<path d="M80.8914 78.0283C80.8943 76.1465 82.6942 74.6114 84.9107 74.6076C87.1242 74.6114 88.9227 76.1465 88.9284 78.0283L88.9256 91.8765H80.8914V78.0283ZM79.455 94.3164H90.3649C90.747 94.3164 91.109 94.1895 91.3776 93.961C91.6505 93.7288 91.8013 93.421 91.8013 93.0977V78.0283C91.7985 74.7931 88.7158 72.1676 84.9107 72.1676C81.1011 72.1676 78.0185 74.7931 78.0185 78.0283L78.0156 93.0977C78.0156 93.4187 78.1694 93.734 78.4394 93.961C78.7052 94.1867 79.0729 94.3164 79.455 94.3164Z" fill="#173F5F"/>
<path d="M116.18 78.0283C116.183 76.1427 117.976 74.6114 120.2 74.6076C122.41 74.6114 124.216 76.1465 124.222 78.0283L124.219 91.8765H116.178L116.18 78.0283ZM114.744 94.3164H125.655C126.039 94.3164 126.401 94.1895 126.671 93.961C126.944 93.7288 127.093 93.421 127.093 93.0977V78.0283C127.089 74.7931 124.002 72.1676 120.2 72.1676C116.389 72.1676 113.308 74.7946 113.308 78.0283L113.305 93.0977C113.305 93.4187 113.46 93.734 113.728 93.961C113.996 94.1867 114.363 94.3164 114.744 94.3164Z" fill="#173F5F"/>
<path d="M45.6239 78.0283C45.6239 76.1402 47.4209 74.6114 49.6273 74.6076C51.8423 74.6114 53.6465 76.1465 53.6508 78.0283L53.6479 91.8765H45.621L45.6239 78.0283ZM42.7509 78.0283L42.748 93.0977C42.748 93.4187 42.9018 93.734 43.1718 93.961C43.4376 94.1867 43.8067 94.3164 44.1874 94.3164H55.0873C55.4708 94.3164 55.83 94.1895 56.1 93.961C56.3715 93.7288 56.5237 93.421 56.5237 93.0977V78.0283C56.5208 74.7931 53.4325 72.1676 49.6273 72.1676C45.8235 72.1676 42.7509 74.7969 42.7509 78.0283Z" fill="#173F5F"/>
<path d="M98.5409 78.0298C98.5452 76.1441 100.347 74.6129 102.554 74.6091C104.768 74.6129 106.571 76.1479 106.576 78.0298L106.574 91.8755H98.5409V78.0298ZM97.1044 94.3203H108.013C108.388 94.3203 108.758 94.1882 109.029 93.9625C109.294 93.733 109.447 93.4202 109.447 93.0991V78.0298C109.447 74.7946 106.36 72.169 102.554 72.169C98.752 72.169 95.6708 74.7961 95.668 78.0298V93.0991C95.668 93.4202 95.8217 93.733 96.0889 93.9625C96.3575 94.1882 96.7266 94.3203 97.1044 94.3203Z" fill="#173F5F"/>
</svg>
